<?xml version="1.0" encoding="utf-8"?>
<!-- Generator: Adobe Illustrator 21.1.0, SVG Export Plug-In . SVG Version: 6.00 Build 0)  -->
<svg version="1.1" xmlns="http://www.w3.org/2000/svg" xmlns:xlink="http://www.w3.org/1999/xlink" x="0px" y="0px"
	 viewBox="0 0 385.3 669" style="enable-background:new 0 0 385.3 669;" xml:space="preserve">
<style type="text/css">
	.st0{fill:#FFF5C5;}
	.st1{opacity:0.75;fill:none;stroke:#602E17;stroke-miterlimit:10;}
	.st2{opacity:0.1;}
	.st3{opacity:0.36;}
	.st4{opacity:0.89;}
	.st5{fill:none;stroke:#000000;stroke-width:8;stroke-miterlimit:10;}
	.st6{fill:none;stroke:#000000;stroke-width:8;stroke-miterlimit:10;stroke-dasharray:5,5;}
	.st7{fill:none;stroke:#000000;stroke-width:12;stroke-miterlimit:10;}
	.st8{fill:none;stroke:#000000;stroke-width:15;stroke-miterlimit:10;}
	.st9{fill:none;stroke:#000000;stroke-width:20;stroke-miterlimit:10;}
	.st10{fill:none;stroke:#000000;stroke-width:15;stroke-linecap:square;stroke-miterlimit:10;}
	.st11{fill:#9F9F9F;}
	.st12{fill:#FCFCFC;}
	.st13{fill:#F9F9F9;}
	.st14{fill:#EFEFEF;}
	.st15{fill:#898989;}
	.st16{fill:#B7B7B7;}
	.st17{fill:#FFFFFF;}
	.st18{opacity:0.57;}
	.st19{fill:#352A21;}
	.st20{fill:#231F20;}
	.st21{stroke:#000000;stroke-width:3;stroke-linecap:round;stroke-linejoin:round;stroke-miterlimit:10;}
	.st22{stroke:#000000;stroke-linecap:round;stroke-linejoin:round;stroke-miterlimit:10;}
	.st23{fill:none;stroke:#000000;stroke-miterlimit:10;}
	.st24{fill:none;stroke:#000000;stroke-width:3;stroke-miterlimit:10;}
	.st25{fill:none;stroke:#000000;stroke-width:3;stroke-miterlimit:10;stroke-dasharray:11.625,11.625,2.9063,11.625,2.9063,11.625;}
	.st26{fill:none;stroke:#000000;stroke-width:3;stroke-miterlimit:10;stroke-dasharray:11.625,2.9063,11.625,11.625,2.9063,11.625;}
	.st27{fill:none;stroke:#000000;stroke-width:2;stroke-miterlimit:10;}
	.st28{fill:none;stroke:#000000;stroke-width:2;stroke-miterlimit:10;stroke-dasharray:11.625,11.625,2.9063,11.625,2.9063,11.625;}
	.st29{fill:none;stroke:#000000;stroke-width:2;stroke-miterlimit:10;stroke-dasharray:11.625,2.9063,11.625,11.625,2.9063,11.625;}
	
		.st30{fill:none;stroke:#000000;stroke-width:3;stroke-miterlimit:10;stroke-dasharray:11.1034,11.1034,2.7759,2.7759,2.7759,11.1034;}
	
		.st31{fill:none;stroke:#000000;stroke-width:3;stroke-miterlimit:10;stroke-dasharray:2.7759,2.7759,11.1034,11.1034,2.7759,2.7759;}
	
		.st32{fill:none;stroke:#000000;stroke-width:3;stroke-miterlimit:10;stroke-dasharray:10.5333,10.5333,10.5333,10.5333,2.6333,10.5333;}
	.st33{fill:none;stroke:#000000;stroke-width:2;stroke-miterlimit:10;stroke-dasharray:10;}
	
		.st34{fill:none;stroke:#000000;stroke-width:3;stroke-miterlimit:10;stroke-dasharray:14.8438,14.8438,3.7109,14.8438,14.8438,14.8438;}
	
		.st35{fill:none;stroke:#000000;stroke-width:3;stroke-miterlimit:10;stroke-dasharray:14.8438,14.8438,14.8438,14.8438,3.7109,14.8438;}
	.st36{opacity:0.64;}
	.st37{fill:none;stroke:#000000;stroke-miterlimit:10;stroke-dasharray:7.5514,7.5514,1.8879,7.5514,1.8879,7.5514;}
	.st38{fill:none;stroke:#000000;stroke-miterlimit:10;stroke-dasharray:7.5514,1.8879,7.5514,7.5514,1.8879,7.5514;}
	.st39{fill:none;stroke:#000000;stroke-miterlimit:10;stroke-dasharray:9.9692,9.9692,2.4923,2.4923,2.4923,9.9692;}
	.st40{fill:none;stroke:#000000;stroke-miterlimit:10;stroke-dasharray:2.4923,2.4923,9.9692,9.9692,2.4923,2.4923;}
	.st41{fill:none;stroke:#000000;stroke-miterlimit:10;stroke-dasharray:3.8671,3.8671,3.8671,3.8671,0.9668,3.8671;}
	.st42{fill:none;stroke:#000000;stroke-miterlimit:10;stroke-dasharray:6.2764,6.2764,1.5691,6.2764,6.2764,6.2764;}
	.st43{fill:none;stroke:#000000;stroke-miterlimit:10;stroke-dasharray:6.2764,6.2764,6.2764,6.2764,1.5691,6.2764;}
	
		.st44{fill:none;stroke:#000000;stroke-width:3;stroke-miterlimit:10;stroke-dasharray:14.8377,14.8377,3.7094,14.8377,3.7094,14.8377;}
	
		.st45{fill:none;stroke:#000000;stroke-width:3;stroke-miterlimit:10;stroke-dasharray:14.8377,3.7094,14.8377,14.8377,3.7094,14.8377;}
	.st46{fill:none;stroke:#000000;stroke-width:3;stroke-miterlimit:10;stroke-dasharray:12.424,12.424,3.106,3.106,3.106,12.424;}
	.st47{fill:none;stroke:#000000;stroke-width:3;stroke-miterlimit:10;stroke-dasharray:3.106,3.106,12.424,12.424,3.106,3.106;}
	.st48{fill:none;stroke:#000000;stroke-width:3;stroke-miterlimit:10;stroke-dasharray:8.5677,8.5677,8.5677,8.5677,2.1419,8.5677;}
	
		.st49{fill:none;stroke:#000000;stroke-width:3;stroke-miterlimit:10;stroke-dasharray:12.3175,12.3175,3.0794,12.3175,12.3175,12.3175;}
	
		.st50{fill:none;stroke:#000000;stroke-width:3;stroke-miterlimit:10;stroke-dasharray:12.3175,12.3175,12.3175,12.3175,3.0794,12.3175;}
	.st51{opacity:0.55;fill:none;stroke:#000000;stroke-miterlimit:10;}
	.st52{opacity:0.33;}
	.st53{fill:none;stroke:#000000;stroke-miterlimit:10;stroke-dasharray:4.1223,4.1223,1.0306,1.0306,1.0306,4.1223;}
	.st54{fill:none;stroke:#000000;stroke-miterlimit:10;stroke-dasharray:1.1336,1.1336,1.1336,1.1336,0.2834,1.1336;}
	.st55{opacity:0.55;fill:none;stroke:#000000;stroke-width:3;stroke-miterlimit:10;}
	.st56{opacity:0.43;}
	.st57{fill:#FFFFFF;stroke:#000000;stroke-miterlimit:10;}
	.st58{fill:#534741;}
	.st59{fill:none;stroke:#534741;stroke-miterlimit:10;}
	.st60{opacity:0.55;fill:none;stroke:#534741;stroke-miterlimit:10;}
	.st61{opacity:0.55;fill:none;stroke:#534741;stroke-width:3;stroke-miterlimit:10;}
	.st62{opacity:0.88;}
	.st63{fill:#C6B198;stroke:#534741;stroke-miterlimit:10;}
	.st64{fill:#534741;stroke:#000000;stroke-width:0.25;stroke-miterlimit:10;}
	.st65{fill:#66402F;}
	.st66{fill:none;stroke:#823E20;stroke-miterlimit:10;}
	.st67{fill:none;stroke:#6D3922;stroke-width:0.75;stroke-miterlimit:10;}
	.st68{fill:none;stroke:#6D3922;stroke-width:3;stroke-miterlimit:10;}
	.st69{opacity:0.36;fill:#B77A3D;stroke:#000000;stroke-width:0.25;stroke-miterlimit:10;}
</style>
<g id="Layer_2">
</g>
<g id="Layer_3">
</g>
<g id="Layer_1">
	<g>
		<path class="st58" d="M109.6,217.5c-2.1,1.3-4.2,2.5-6.2,3.7c-6.2-3.7-12.4-7.4-18.6-11.1c-1,0.6-2,1.2-3.1,1.8
			c21.9,13.1,43.7,26.2,65.5,39.2c0.7-0.5,1.4-0.9,2.1-1.3c0.6,0.3,1.1,0.7,1.8,1.1c-0.2,0.1-0.3,0.2-0.4,0.3
			c-3.3,2.2-6.7,4.4-10,6.6c-0.3,0.2-0.5,0.2-0.8,0c-0.4-0.3-0.9-0.5-1.4-0.9c0.7-0.5,1.4-0.9,2.1-1.4c-0.2-0.1-0.4-0.3-0.6-0.4
			c-11.1-6.7-22.1-13.3-33.2-19.9c-10.5-6.3-20.9-12.6-31.4-18.9c-0.5-0.3-0.8-0.3-1.3,0c-0.8,0.5-1.6,1-2.5,1.5
			c6.3,3.8,12.5,7.5,18.7,11.3c-0.2,0.1-0.4,0.3-0.5,0.3c-1.8,1.1-3.6,2.2-5.5,3.3c-0.3,0.2-0.6,0.2-0.9,0c-6.6-4-13.2-8-19.7-12
			c-0.1-0.1-0.2-0.2-0.4-0.3c0.2-0.1,0.4-0.2,0.5-0.3c8.3-4.8,16.7-9.7,25-14.5c0.4-0.2,0.7-0.2,1,0c6.4,3.8,12.8,7.6,19.1,11.4
			C109.2,217.2,109.4,217.3,109.6,217.5z M143.8,253.3c-0.2-0.2-0.4-0.3-0.6-0.4c-20.1-12.1-40.2-24.1-60.3-36.2
			c-1.4-0.9-2.8-1.7-4.3-2.6c-0.2-0.1-0.4-0.2-0.5-0.1c-0.5,0.3-1,0.6-1.6,0.9c0.3,0.2,0.4,0.3,0.6,0.4c7,4.2,13.9,8.4,20.9,12.6
			c14.6,8.8,29.1,17.5,43.7,26.3c0.1,0.1,0.2,0.1,0.3,0.2c0.1,0,0.3,0.1,0.4,0C142.8,253.9,143.2,253.6,143.8,253.3z M85.6,229.8
			c-0.2-0.1-0.3-0.2-0.5-0.3c-4.4-2.6-8.7-5.3-13.1-7.9c-1-0.6-2.1-1.3-3.1-1.9c-0.1-0.1-0.4-0.2-0.5-0.1c-0.5,0.3-1,0.6-1.6,0.9
			c5.8,3.5,11.4,6.9,17.1,10.3C84.5,230.5,85,230.2,85.6,229.8z M105.1,218.2c-5.7-3.4-11.3-6.7-16.9-10.1c-0.6,0.3-1.1,0.6-1.7,1
			c5.7,3.4,11.3,6.7,16.9,10.1C103.9,218.8,104.5,218.5,105.1,218.2z"/>
		<path class="st58" d="M217.8,210c0.2-0.1,0.3-0.2,0.4-0.3c1.6-1,3.2-2.1,4.7-3.1c0.3-0.2,0.6-0.2,0.9,0c1.7,1,3.4,2,5.1,2.9
			c0.8,0.4,1.6,0.8,2.5,1.2c1,0.4,2.1,0.5,3.2,0.2c0.5-0.2,0.9-0.4,1.3-0.7c0.7-0.5,0.7-1.2,0.2-1.8c-0.4-0.5-1-1-1.6-1.3
			c-1.5-0.8-2.9-1.7-4.4-2.5c-2.1-1.2-4.1-2.4-6.2-3.5c-0.1-0.1-0.3-0.1-0.4-0.2c0,0.1-0.1,0.1-0.1,0.2c0,0.9-0.4,1.7-1,2.4
			c-1.1,1.1-2.4,1.8-3.8,2.3c-2.2,0.8-4.3,0.8-6.6,0.3c-2.2-0.5-4.2-1.4-6.1-2.5c-10.3-5.9-20.6-11.9-30.9-17.8
			c-0.7-0.4-1.4-0.8-2.1-1.3c-0.8-0.5-1.5-1.1-2.3-1.8c-0.5-0.5-1-1-1.3-1.7c-0.4-0.9-0.4-1.7,0.1-2.6c0.4-0.6,0.9-1.1,1.4-1.5
			c1.9-1.4,4-2.1,6.3-2.2c0.2,0,0.3,0,0.5-0.1c-0.3-0.2-0.7-0.4-1.1-0.7c2.6-1.5,5-3,7.6-4.5c0.5,0.3,1,0.6,1.6,0.9
			c-0.6,0.4-1.2,0.7-1.8,1.1c0.2,0.1,0.3,0.2,0.5,0.3c4,2.3,8,4.6,12,6.8c12.9,7.4,25.8,14.7,38.7,22.1c1,0.6,1.9,1.2,2.7,2
			c1,0.9,1.7,2,2,3.3c0.3,1.3,0.1,2.5-0.7,3.5c-0.8,1.1-1.9,1.9-3.1,2.5c-1.6,0.9-3.4,1.3-5.2,1.4c-1.6,0.2-3.1,0.1-4.7,0
			c-1.5-0.2-3-0.5-4.5-1c-1.5-0.5-2.8-1.3-4.1-2.1C217.9,210.1,217.9,210.1,217.8,210z M178.7,175.6c-0.2,0-0.5,0-0.7,0
			c-1,0.1-1.9,0.3-2.8,0.9c-0.7,0.5-0.8,1.1-0.2,1.8c0.3,0.3,0.6,0.6,0.9,0.8c0.8,0.5,1.6,1,2.4,1.5c12.2,7,24.4,14,36.6,21
			c0.8,0.5,1.7,0.8,2.6,1.1c1.1,0.3,2.3,0.3,3.3-0.4c0.6-0.4,0.9-1,0.9-1.8c0-0.5-0.1-0.8-0.6-1.1c-13.5-7.7-27.1-15.5-40.6-23.2
			C180,175.7,179.4,175.4,178.7,175.6z M237.7,208.2c0,0,0.1,0,0.1-0.1c0-0.2,0-0.5-0.1-0.7c-0.1-0.9-0.6-1.6-1.2-2.3
			c-0.7-0.8-1.6-1.4-2.6-2c-2.4-1.4-4.8-2.7-7.2-4.1c-15-8.6-30-17.1-45-25.7c-0.2-0.1-0.3-0.2-0.5-0.3c-0.5,0.3-0.9,0.6-1.4,0.9
			c0.2,0.1,0.4,0.2,0.5,0.3c11.7,6.7,23.4,13.4,35,20c6.3,3.6,12.6,7.2,18.9,10.8c0.5,0.3,0.9,0.6,1.3,0.9
			C236.5,206.6,237.2,207.3,237.7,208.2z M217,204.7c0,0,0-0.1,0-0.1c-0.1,0-0.2,0-0.3-0.1c-1.2-0.1-2.5-0.4-3.6-0.9
			c-0.9-0.4-1.8-0.8-2.7-1.3c-8.1-4.7-16.3-9.3-24.4-14c-3.6-2-7.1-4.1-10.7-6.1c-0.9-0.5-1.7-1.1-2.5-1.8c-0.5-0.4-0.9-1-1.1-1.6
			c0-0.1-0.1-0.2-0.1-0.3c-0.6,0.7-0.7,1.4-0.3,2.2c0.5,1,1.4,1.7,2.3,2.2c1.7,1.1,3.5,2.1,5.3,3.1c9.9,5.7,19.7,11.4,29.6,17
			c1.1,0.7,2.4,1.2,3.6,1.6c1.1,0.3,2.3,0.5,3.5,0.4C216.1,204.9,216.6,204.8,217,204.7z M220.9,210.1c2.1,1.6,6.2,2.6,8.5,2.2
			c-1.4-0.3-2.6-0.7-3.7-1.2c-1.2-0.6-2.3-1.2-3.4-1.8C221.8,209.5,221.4,209.8,220.9,210.1z"/>
		<path class="st58" d="M154.6,217.8c-4,2.5-7.9,5-11.9,7.4c0.2,0.1,0.4,0.2,0.5,0.3c6.3,3.7,12.6,7.5,18.9,11.2
			c1.1,0.6,2.2,1.2,3.4,1.3c1.4,0.2,2.7-0.1,3.8-0.9c1.1-0.8,1.1-1.7,0.2-2.7c-0.5-0.5-1.2-1-1.8-1.4c-3.2-1.9-6.4-3.8-9.6-5.7
			c-0.2-0.1-0.4-0.2-0.7-0.4c2.1-1.3,4.1-2.6,6.2-3.9c0.1,0.1,0.3,0.1,0.4,0.2c2,1.2,4,2.4,6,3.5c1.1,0.6,2,1.4,2.8,2.3
			c1.1,1.3,1.7,2.7,1.6,4.4c-0.1,1.3-0.7,2.4-1.6,3.3c-1.2,1.3-2.7,2.1-4.3,2.8c-2.6,1.1-5.3,1.4-8,1.2c-1.7-0.1-3.4-0.4-5-0.8
			c-1.3-0.4-2.6-1-3.8-1.7c-10.7-6.4-21.4-12.7-32.1-19.1c-0.9-0.5-1.8-1.1-2.5-1.9c-0.7-0.7-1.3-1.6-1.6-2.6
			c-0.5-1.6-0.3-3.2,0.7-4.6c0.6-0.9,1.4-1.6,2.3-2.2c2-1.3,4.2-2.1,6.6-2.4c2.9-0.4,5.7-0.2,8.5,0.5c1.4,0.3,2.7,0.8,4,1.6
			c2.7,1.6,5.4,3.2,8.2,4.8c2.8,1.7,5.7,3.3,8.5,5C154.3,217.6,154.4,217.7,154.6,217.8z M146.6,220.7c-0.2-0.2-0.4-0.3-0.6-0.4
			c-6.2-3.6-12.3-7.3-18.5-10.9c-0.8-0.5-1.7-0.8-2.6-1.1c-0.8-0.2-1.7-0.3-2.5-0.1c-0.9,0.2-1.7,0.6-2.4,1.2
			c-0.4,0.4-0.7,1.1-0.2,1.7c0.2,0.2,0.3,0.5,0.5,0.7c0.5,0.4,1,0.8,1.5,1.1c5.8,3.5,11.6,6.9,17.5,10.4c0.5,0.3,1.1,0.6,1.6,1
			C142.8,223.1,144.6,221.9,146.6,220.7z M117.2,212.9C117.2,212.9,117.1,212.9,117.2,212.9c-0.1,0.3-0.1,0.6-0.1,0.8
			c0.1,1,0.5,1.8,1.2,2.5c0.6,0.7,1.4,1.2,2.2,1.7c11.1,6.6,22.2,13.2,33.3,19.8c1.3,0.8,2.8,1.4,4.3,1.7c1.3,0.3,2.7,0.4,4.1,0.3
			c-0.1-0.1-0.2-0.1-0.3-0.2c-0.7-0.2-1.4-0.4-2.1-0.6c-1.2-0.4-2.2-1-3.3-1.6c-9.7-5.7-19.3-11.5-29-17.2c-2.3-1.4-4.6-2.7-6.8-4.1
			c-1.1-0.7-2.2-1.4-3-2.5C117.5,213.4,117.4,213.2,117.2,212.9z M124.9,207.2c0.1,0,0.3,0.1,0.4,0.1c1.8,0.3,3.5,1,5.1,1.9
			c4.5,2.7,9,5.3,13.5,8c1.3,0.8,2.5,1.5,3.8,2.2c0.1,0.1,0.4,0.2,0.5,0.1c0.5-0.3,0.9-0.6,1.5-0.9c-0.2-0.1-0.3-0.2-0.4-0.3
			c-5.2-3.1-10.5-6.2-15.7-9.3C130.8,207.6,127.9,207,124.9,207.2z M171.6,234.9c0.2-1.2-0.2-2.3-1-3.2c-0.6-0.7-1.2-1.3-2-1.7
			c-1.3-0.8-2.7-1.6-4-2.4c-0.8-0.5-1.6-0.9-2.4-1.4c-0.5,0.3-1,0.6-1.6,1c0.3,0.2,0.5,0.3,0.8,0.5c2.2,1.3,4.3,2.5,6.5,3.8
			C169.4,232.3,170.8,233.3,171.6,234.9z"/>
		<path class="st58" d="M187.5,197.2c-3.7,2.3-7.4,4.6-11.1,7c0.2,0.1,0.3,0.2,0.5,0.3c4,2.3,8,4.6,12,7c2.2,1.3,4.4,2.6,6.6,3.9
			c0.8,0.5,1.7,0.9,2.6,1.1c1.5,0.4,2.9,0.3,4.1-0.6c0.2-0.2,0.4-0.3,0.6-0.5c0.4-0.4,0.4-0.9,0.1-1.5c-0.2-0.5-0.6-0.8-1-1.1
			c-0.9-0.6-1.8-1.1-2.7-1.6c-2.7-1.6-5.4-3.1-8.1-4.7c-0.2-0.1-0.3-0.2-0.5-0.3c2-1.3,3.9-2.5,5.8-3.7c0.1,0,0.2,0.1,0.3,0.1
			c2,1.2,4,2.3,6,3.5c0.7,0.4,1.4,0.9,2.1,1.5c0.8,0.7,1.5,1.6,1.9,2.6c0.8,1.9,0.5,3.7-0.9,5.3c-1.2,1.4-2.8,2.3-4.5,2.9
			c-2,0.8-4.1,1-6.3,1c-2.5,0-4.8-0.4-7.1-1.3c-0.8-0.3-1.6-0.7-2.3-1.1c-10.5-6.1-21-12.2-31.5-18.4c-1-0.6-2-1.3-2.7-2.2
			c-0.7-0.8-1.3-1.7-1.5-2.8c-0.3-1.6,0.1-3,1.2-4.2c1.1-1.2,2.5-2,3.9-2.6c1.7-0.7,3.5-1.1,5.3-1.2c2.7-0.2,5.4,0.1,8,1
			c1.2,0.4,2.2,0.9,3.3,1.5c5.2,3,10.4,6,15.5,9C187.1,196.9,187.3,197,187.5,197.2z M179.9,199.8c-0.9-0.5-1.8-1-2.6-1.5
			c-5.3-3.1-10.6-6.1-15.9-9.2c-0.7-0.4-1.5-0.8-2.3-1.1c-0.9-0.3-1.9-0.4-2.9-0.2c-0.8,0.2-1.5,0.5-2.1,1.1
			c-0.5,0.5-0.5,1.1-0.1,1.7c0.1,0.1,0.2,0.2,0.3,0.3c0.5,0.5,1.1,0.9,1.7,1.3c6.1,3.5,12.2,7.1,18.2,10.6c0.3,0.2,0.6,0.2,0.9,0
			c1.5-0.9,2.9-1.8,4.4-2.8C179.5,200.1,179.7,200,179.9,199.8z M195.4,218c0,0,0-0.1,0-0.1c-0.4-0.1-0.8-0.2-1.1-0.3
			c-1.5-0.4-3-1.1-4.3-1.9c-9.9-5.8-19.7-11.5-29.6-17.2c-1.9-1.1-3.9-2.2-5.8-3.4c-1.2-0.7-2.2-1.6-3-2.8c0,0-0.1,0-0.1,0
			c0,0,0,0.1-0.1,0.1c0,0.1,0,0.2,0,0.3c0,1,0.4,1.8,1,2.5c0.6,0.8,1.4,1.3,2.3,1.8c10.9,6.3,21.7,12.6,32.5,19
			c1.5,0.9,3,1.5,4.7,1.8C193.1,218,194.3,218.1,195.4,218z M182.8,198c-0.2-0.1-0.2-0.2-0.3-0.2c-5.3-3.1-10.6-6.2-15.9-9.2
			c-2.3-1.3-4.8-1.8-7.5-1.7c-0.1,0-0.2,0.1-0.3,0.1c1.2,0.2,2.4,0.6,3.5,1.1c0.7,0.3,1.4,0.7,2,1.1c4.6,2.7,9.3,5.4,13.9,8
			c0.9,0.5,1.9,1.1,2.8,1.6c0.2,0.1,0.3,0.2,0.5,0.1C181.9,198.6,182.4,198.3,182.8,198z M204.4,213.5c0-0.2,0.1-0.2,0.1-0.3
			c0-0.6-0.1-1.1-0.3-1.6c-0.5-1-1.2-1.8-2.1-2.4c-1-0.6-2-1.2-3-1.8c-1.2-0.7-2.3-1.4-3.5-2c-0.1-0.1-0.4-0.2-0.5-0.1
			c-0.5,0.2-0.9,0.5-1.3,0.9c0.2,0.1,0.4,0.2,0.5,0.3c2.2,1.3,4.5,2.6,6.7,3.9C202.3,211.1,203.6,212,204.4,213.5z"/>
		<path class="st58" d="M338.5,127.9c-2,1.3-3.9,2.6-5.9,3.8c-1.1-0.6-2.1-1.1-3.2-1.7c-5-2.7-10-5.4-15-8.1
			c-7.4-4-14.7-7.9-22.1-11.9c-0.8-0.4-1.6-0.7-2.4-1c-0.6-0.2-1.2-0.3-1.9-0.2c-0.4,0.1-0.8,0.2-1.2,0.5c-0.4,0.3-0.6,0.7-0.6,1.2
			c0,0.4,0.1,0.8,0.6,1c8.7,4.7,17.4,9.4,26.1,14c4.6,2.5,9.2,5,13.8,7.4c0.2,0.1,0.4,0.2,0.5,0.3c0.5-0.3,0.9-0.6,1.5-0.9
			c0.5,0.3,1,0.5,1.6,0.8c-2.5,1.7-5,3.3-7.4,4.9c-0.5-0.3-1-0.5-1.6-0.9c0.5-0.3,0.9-0.6,1.4-0.9c-0.1-0.1-0.2-0.2-0.3-0.2
			c-6.9-3.7-13.7-7.4-20.6-11.1c-9.6-5.2-19.2-10.4-28.8-15.5c-2.6-1.4-5.1-2.7-7.6-4.1c-0.3-0.2-0.5-0.2-0.8,0
			c-0.4,0.2-0.7,0.4-1.1,0.7c-0.5-0.3-1-0.5-1.5-0.8c0.1-0.1,0.2-0.2,0.3-0.2c1.9-1.1,3.7-2.2,5.6-3.3c0.3-0.2,0.5-0.1,0.7,0.1
			c4.6,2.5,9.3,5,13.9,7.5c0.7,0.3,1.3,0.7,2,1c0.1,0,0.2,0.1,0.3,0.1c0-0.1,0.1-0.1,0.1-0.1c-0.1-0.9,0.4-1.6,1.1-2.2
			c1.3-1.1,2.9-1.6,4.6-1.8c2.3-0.2,4.5,0.4,6.6,1.3c2,0.8,3.9,1.9,5.8,3c6.6,3.5,13.3,7.1,19.9,10.7c4.1,2.2,8.3,4.4,12.4,6.6
			c0.1,0.1,0.2,0.1,0.3,0.1c0.4-0.2,0.7-0.5,1.1-0.7c0.2-0.2,0.4-0.2,0.7,0C337.6,127.5,338,127.7,338.5,127.9z M266.2,104.5
			c0.2,0.1,0.4,0.2,0.6,0.3c5.2,2.8,10.3,5.6,15.5,8.3c12.3,6.7,24.7,13.3,37,20c1.4,0.8,2.9,1.5,4.3,2.3c0.2,0.1,0.3,0.2,0.5,0.1
			c0.3-0.2,0.6-0.4,1-0.7c-19.3-10.4-38.5-20.7-57.6-31.1c-0.3,0.2-0.6,0.4-1,0.6C266.4,104.4,266.3,104.4,266.2,104.5z M289.5,108
			c2.4,0.7,2.9,0.9,4.5,1.7c4,2.1,8,4.3,11.9,6.4c6.9,3.7,13.8,7.4,20.7,11.1c1.7,0.9,3.4,1.8,5.1,2.7c0.1,0.1,0.4,0.2,0.5,0.1
			c0.3-0.2,0.6-0.4,1-0.6c-0.2-0.1-0.3-0.2-0.4-0.3c-6.6-3.5-13.1-7-19.7-10.6c-5.8-3.1-11.6-6.2-17.4-9.3c-1.4-0.8-2.9-1.3-4.6-1.4
			C290.6,107.9,290.1,107.8,289.5,108z"/>
		<path class="st58" d="M225.3,161.6c-0.2,0.1-0.3,0.2-0.5,0.3c-1.5,0.9-3,1.8-4.4,2.7c-0.3,0.2-0.6,0.2-0.9,0
			c-1.8-1.1-3.7-2.1-5.5-3.1c-1.3-0.7-2.4-1.5-3.4-2.7c-0.6-0.7-1-1.4-1.1-2.3c-0.2-1.2,0.2-2.2,1-3.1c0.8-0.8,1.7-1.4,2.7-1.9
			c1.6-0.8,3.2-1.2,5-1.4c2.6-0.2,5.2,0.2,7.7,1.1c1.7,0.6,3.2,1.5,4.7,2.3c3.5,1.9,6.9,3.9,10.4,5.8c8.1,4.5,16.2,9,24.3,13.5
			c1,0.6,0.6,0.5,1.6,0c0.3-0.2,0.6-0.5,0.9-0.5c0.3,0,0.6,0.3,1,0.4c0.2,0.1,0.4,0.2,0.6,0.3c-0.3,0.3-5.5,3.8-6.7,4.5
			c-0.4-0.2-0.8-0.4-1.2-0.6c0,0.1-0.1,0.2,0,0.3c0,0.8-0.3,1.4-0.8,2c-0.5,0.5-1.1,1-1.7,1.3c-1.9,1.1-4,1.5-6.1,1.2
			c-1.2-0.1-2.4-0.4-3.6-0.8c-1.4-0.5-2.7-1.1-4-1.8c-3.6-2-7.2-4-10.7-6c-1-0.6-2-1.3-2.9-2.1c-0.6-0.5-1.1-1.1-1.4-1.8
			c-0.5-1-0.5-2,0.1-3.1c0.4-0.7,0.9-1.3,1.5-1.7c0.9-0.7,1.9-1.3,2.8-1.9c0.2-0.1,0.4-0.2,0.6-0.4c-0.2-0.1-0.3-0.2-0.4-0.3
			c-3.4-1.9-6.8-3.8-10.1-5.7c-1.5-0.9-3.1-1.7-4.6-2.6c-0.9-0.5-1.9-1-2.9-1.2c-0.8-0.2-1.6-0.2-2.4,0.2c-0.3,0.1-0.5,0.3-0.8,0.5
			c-0.3,0.3-0.4,0.7-0.1,1.1c0.2,0.3,0.5,0.7,0.9,0.9c0.5,0.4,1,0.7,1.5,1c3,1.7,5.9,3.3,8.9,5C224.9,161.4,225.1,161.4,225.3,161.6
			z M236.6,163.2c-0.6,0.4-1.2,0.8-1.8,1.1c-0.1,0.1-0.2,0.1-0.3,0.2c-0.8,0.7-0.8,1.4-0.1,2.1c0.5,0.4,1,0.8,1.6,1.2
			c5.8,3.3,11.6,6.5,17.4,9.8c0.6,0.3,1.3,0.6,1.9,0.9c0.5,0.2,1.1,0.3,1.7,0.4c0.7,0.1,1.4-0.1,1.9-0.6c0.5-0.4,0.6-1,0.6-1.6
			c0-0.6-0.4-0.8-0.8-1c-6-3.4-12.1-6.8-18.1-10.1C239.4,164.8,238,164,236.6,163.2z M263.4,175.1c-0.3-0.2-0.5-0.3-0.7-0.4
			c-7.6-4.3-15.3-8.5-22.9-12.8c-5.1-2.9-10.3-5.7-15.4-8.6c-2.2-1.2-4.5-1.8-7-1.8c-0.1,0-0.2,0-0.3,0c-0.1,0-0.2,0-0.3,0
			c1.9,0.4,3.7,1.1,5.3,2.1c4,2.2,8,4.5,12,6.7c9.1,5.1,18.2,10.2,27.4,15.3c0.2,0.1,0.3,0.2,0.5,0.3
			C262.5,175.7,262.9,175.4,263.4,175.1z M231.6,167.6c0,0-0.1,0-0.1,0c0,0.4,0,0.7,0.1,1c0.1,0.6,0.5,1,0.9,1.5
			c0.8,0.8,1.6,1.4,2.5,1.9c4.2,2.4,8.4,4.7,12.6,7.1c1.1,0.6,2.2,1.1,3.4,1.4c1.2,0.3,2.5,0.5,3.7,0.3c0.2,0,0.5-0.1,0.7-0.1
			c0,0,0-0.1,0-0.1c-0.3,0-0.6-0.1-0.9-0.1c-1.8-0.3-3.4-0.9-5-1.8c-1.1-0.6-2.1-1.2-3.2-1.8c-3.7-2.1-7.5-4.2-11.2-6.3
			c-1-0.5-1.9-1.2-2.7-2C232.2,168.3,231.9,168,231.6,167.6z M211.3,156c-0.1,0.8,0.2,1.5,0.6,2.1c0.7,1,1.7,1.7,2.8,2.3
			c1.5,0.8,3,1.7,4.5,2.5c0.1,0.1,0.3,0.1,0.4,0.2c0.4-0.3,0.9-0.5,1.3-0.8c-0.2-0.1-0.4-0.2-0.6-0.3c-1.9-1.1-3.9-2.2-5.8-3.3
			C213.4,158,212.2,157.2,211.3,156z"/>
		<path class="st58" d="M190.2,222.9c0.6,0.3,1.1,0.7,1.7,1c-0.1,0.1-0.3,0.2-0.4,0.3c-3,2-6.1,4-9.1,6c-0.3,0.2-0.5,0.2-0.8,0
			c-0.4-0.3-0.9-0.5-1.3-0.8c0.7-0.4,1.2-0.8,1.9-1.3c-21.4-12.5-42.7-25-64-37.6c-0.6,0.3-1.1,0.6-1.6,0.9c-0.3,0.2-0.5,0.2-0.8,0
			c-0.4-0.3-0.8-0.5-1.2-0.7c0.3-0.3,6.6-4.1,8.2-4.9c0.2,0.1,0.3,0.2,0.5,0.3c10.7,6.3,21.4,12.5,32.1,18.8
			c10.8,6.3,21.5,12.6,32.3,18.9c0.4,0.2,0.7,0.2,1.1,0C189.3,223.5,189.7,223.2,190.2,222.9z M185.3,226.2
			c-0.2-0.2-0.4-0.3-0.6-0.3c-10.1-5.9-20.2-11.9-30.4-17.8c-9.7-5.7-19.4-11.4-29.1-17.1c-1.2-0.7-2.3-1.4-3.5-2
			c-0.1-0.1-0.4-0.2-0.5-0.1c-0.5,0.2-1,0.5-1.5,0.9c21.4,12.5,42.7,25,64,37.5C184.3,226.8,184.7,226.5,185.3,226.2z"/>
		<path class="st58" d="M277.1,150.8c0.1-0.1,0.2-0.1,0.2-0.2c1.4-0.9,2.9-1.8,4.3-2.8c0.3-0.2,0.5-0.1,0.7,0
			c2.9,1.6,5.8,3.2,8.7,4.8c0.9,0.5,1.8,1,2.8,1.2c0.7,0.2,1.5,0.3,2.2,0.1c0.4-0.1,0.8-0.3,1.2-0.5c0.6-0.4,0.7-1,0.2-1.5
			c-0.4-0.4-0.8-0.8-1.3-1.1c-0.9-0.5-1.7-1-2.6-1.5c-1.9-1-3.8-2.1-5.7-3.1c-2.5-1.3-5.2-2.1-8-2.3c-3.6-0.2-7.2-0.4-10.7-0.6
			c-1.9-0.1-3.9-0.3-5.8-0.9c-1.4-0.4-2.8-0.9-4.1-1.6c-2.3-1.2-4.5-2.5-6.8-3.7c-1-0.6-1.9-1.4-2.6-2.3c-0.5-0.6-0.8-1.3-0.9-2.1
			c-0.2-0.9,0.1-1.8,0.6-2.5c0.4-0.5,0.9-1,1.5-1.3c1.4-0.9,3-1.5,4.7-1.7c4.2-0.5,8.2,0.4,11.9,2.4c1.6,0.9,3.1,1.7,4.7,2.6
			c0.1,0.1,0.2,0.2,0.4,0.3c-1.6,1-3.2,2-4.8,3c-0.8-0.4-1.6-0.9-2.3-1.3c-2.3-1.3-4.6-2.6-7-3.8c-0.8-0.4-1.6-0.7-2.4-1
			c-0.8-0.3-1.7-0.3-2.5-0.1c-0.3,0.1-0.5,0.2-0.8,0.4c-0.6,0.4-0.7,1-0.2,1.5c0.4,0.4,0.8,0.8,1.2,1c1.7,1,3.3,1.9,5,2.8
			c1.3,0.7,2.5,1.4,3.8,2c2.1,0.9,4.3,1.5,6.6,1.6c2.6,0.1,5.3,0.3,7.9,0.5c1.3,0.1,2.7,0.2,4,0.2c2.1,0.1,4.1,0.6,6.1,1.4
			c2.2,0.8,4.2,2,6.3,3.1c1.3,0.7,2.6,1.4,3.8,2.2c1,0.6,1.8,1.3,2.5,2.2c0.6,0.8,1,1.6,1.1,2.5c0.1,0.9-0.2,1.6-0.7,2.3
			c-0.6,0.7-1.3,1.3-2.1,1.7c-1.7,1-3.5,1.4-5.4,1.5c-3.8,0.2-7.3-0.7-10.6-2.5c-1.6-0.9-3.2-1.8-4.9-2.7
			C277.4,151,277.3,150.9,277.1,150.8z M250.7,132.6c-0.1,0.6,0.1,1.1,0.4,1.6c0.6,1,1.5,1.7,2.5,2.3c1.1,0.6,2.1,1.2,3.2,1.8
			c1.7,0.9,3.3,1.9,5.1,2.5c1.3,0.5,2.5,0.9,3.8,1.1c1.2,0.2,2.4,0.3,3.6,0.3c2.1,0.2,4.3,0.3,6.4,0.4c1.8,0.1,3.5,0.2,5.3,0.3
			c2.3,0.2,4.5,0.9,6.5,1.9c2.8,1.4,5.6,3,8.3,4.5c0.8,0.4,1.5,1,2.1,1.6c0.3,0.3,0.5,0.6,0.8,0.9c0-0.7-0.2-1.3-0.5-1.8
			c-0.5-0.9-1.2-1.5-2.1-2c-1.4-0.8-2.8-1.6-4.2-2.4c-1.9-1-3.7-2.1-5.8-2.8c-1.4-0.5-2.9-1-4.4-1.1c-1.4-0.1-2.8-0.2-4.2-0.3
			c-2.6-0.2-5.1-0.3-7.7-0.5c-1.4-0.1-2.8-0.1-4.2-0.4c-1.9-0.4-3.7-1.1-5.5-2c-2.1-1.1-4.1-2.2-6.2-3.4c-1-0.5-1.9-1.2-2.7-1.9
			C251.1,133.1,251,132.8,250.7,132.6z M256,128.5c0.2,0,0.3,0.1,0.5,0.1c1,0.2,1.9,0.4,2.8,0.9c1.2,0.6,2.4,1.2,3.5,1.8
			c1.4,0.8,2.8,1.6,4.3,2.3c0.1,0.1,0.3,0.2,0.4,0.1c0.4-0.2,0.8-0.4,1.1-0.7c-0.2-0.1-0.3-0.2-0.4-0.2c-1.5-0.8-2.9-1.6-4.4-2.4
			c-1.3-0.7-2.7-1.3-4.3-1.7C258.4,128.5,257.2,128.4,256,128.5z M291.7,155.1c-0.1,0-0.1,0-0.2-0.1c-1.5-0.3-2.9-0.9-4.3-1.6
			c-1-0.5-2-1.1-2.9-1.6c-1-0.6-2.1-1.1-3.1-1.7c-0.4,0.3-0.8,0.5-1.2,0.8c0.2,0.1,0.4,0.2,0.5,0.3c1.4,0.8,2.8,1.5,4.2,2.3
			c0.9,0.5,1.9,0.9,2.9,1.2C288.9,155.1,290.3,155.3,291.7,155.1z"/>
		<path class="st58" d="M234.3,196.2c-0.5-0.3-1-0.6-1.7-0.9c0.6-0.4,1.1-0.8,1.7-1.2c-0.2-0.1-0.3-0.2-0.5-0.3
			c-14.7-8.4-29.4-16.7-44.2-25.1c-0.4-0.2-0.7-0.3-1.1,0c-0.3,0.2-0.7,0.4-1.1,0.6c-0.1,0.1-0.3,0.1-0.4,0.1
			c-0.5-0.3-1-0.5-1.5-0.8c0.2-0.1,0.3-0.2,0.4-0.3c2.2-1.3,4.4-2.6,6.6-3.9c0.3-0.2,0.6-0.2,0.9,0c0.2,0.2,0.5,0.3,0.7,0.4
			c0-0.1,0.1-0.1,0.1-0.1c0-1.2,0.7-2.1,1.6-2.7c1.6-1.2,3.5-1.7,5.5-1.8c2.2,0,4.4,0.5,6.4,1.4c1,0.4,1.9,0.9,2.9,1.4
			c2,1.1,4,2.3,6,3.4c0.1,0.1,0.2,0.1,0.4,0.3c-1.9,1.1-3.7,2.2-5.5,3.4c-0.4-0.2-0.8-0.5-1.2-0.7c-2.8-1.6-5.7-3.2-8.5-4.8
			c-0.7-0.4-1.5-0.8-2.3-1c-0.7-0.3-1.5-0.4-2.3-0.2c-1,0.3-1.4,0.9-1.4,1.9c0,0.4,0.2,0.6,0.5,0.8c2.7,1.5,5.4,3.1,8.1,4.6
			c11.6,6.5,23.1,13.1,34.6,19.6c0.1,0.1,0.2,0.1,0.3,0.2c0.2,0.2,0.4,0.1,0.6,0c0.5-0.3,1-0.6,1.5-1c0.5,0.3,1.1,0.6,1.6,0.9
			C242.9,190.6,235.1,195.8,234.3,196.2z M237.1,192.3c-0.3-0.2-0.5-0.3-0.7-0.4c-13.5-7.7-27.1-15.4-40.6-23.1
			c-1.2-0.7-2.3-1.3-3.5-2c-0.1-0.1-0.4-0.2-0.5-0.1c-0.4,0.2-0.9,0.4-1.3,0.8c15.1,8.6,30.1,17.1,45.1,25.7
			C236.2,192.9,236.6,192.6,237.1,192.3z M212.7,167.4c-0.1-0.1-0.1-0.1-0.2-0.2c-2.4-1.3-4.8-2.7-7.2-4c-1.7-0.9-3.5-1.3-5.4-1.2
			c-0.2,0-0.4,0-0.6,0.2c1.7,0.3,3.2,1,4.6,1.8c2.3,1.3,4.6,2.6,6.9,3.9c0.2,0.1,0.3,0.2,0.5,0.3
			C211.8,167.9,212.2,167.7,212.7,167.4z"/>
		<path class="st58" d="M302.5,134.6c0.1-0.1,0.2-0.1,0.3-0.2c1.3-0.9,2.7-1.7,4-2.6c0.2-0.1,0.4-0.2,0.6-0.1
			c2.1,1.2,4.3,2.3,6.4,3.5c1.1,0.6,2,1.4,2.7,2.5c0.6,1,1,2,0.7,3.2c-0.2,0.8-0.6,1.5-1.3,2.1c-0.9,0.8-2,1.4-3.2,1.8
			c-1.8,0.6-3.7,0.7-5.5,0.7c-3-0.1-5.8-0.9-8.5-2.4c-9.5-5.2-19-10.4-28.6-15.6c-1.3-0.7-2.4-1.5-3.3-2.6c-0.5-0.6-0.9-1.3-1-2.1
			c-0.3-1.3,0.1-2.4,1-3.3c1.1-1.1,2.4-1.7,3.9-2.2c1.9-0.6,3.8-0.7,5.7-0.5c1.2,0.1,2.3,0.3,3.4,0.5c1.3,0.3,2.6,0.8,3.8,1.5
			c1.9,1,3.8,2,5.7,3.1c-0.1,0.1-0.2,0.2-0.3,0.3c-1.3,0.8-2.6,1.6-4,2.4c-0.3,0.2-0.5,0.2-0.8,0c-2.9-1.6-5.9-3.2-8.8-4.8
			c-0.9-0.5-1.9-0.9-3-1.1c-0.9-0.1-1.7,0-2.5,0.4c-0.2,0.1-0.4,0.2-0.6,0.4c-0.5,0.5-0.6,1-0.1,1.5c0.2,0.3,0.5,0.5,0.8,0.7
			c0.7,0.5,1.5,0.9,2.3,1.3c4.8,2.6,9.5,5.2,14.3,7.8c4.3,2.3,8.6,4.7,12.9,7c2.7,1.5,5.4,2.9,8.1,4.4c1.1,0.6,2.2,1.1,3.5,1.1
			c0.9,0,1.6-0.2,2.3-0.7c0.7-0.5,0.8-1.1,0.3-1.8c-0.2-0.3-0.5-0.5-0.8-0.7c-0.9-0.5-1.8-1.1-2.7-1.6c-2.4-1.3-4.9-2.6-7.3-4
			C302.8,134.8,302.7,134.8,302.5,134.6z M307.9,144.7c-0.1-0.1-0.1-0.1-0.1-0.1c-0.1,0-0.2-0.1-0.3-0.1c-1.4-0.3-2.8-0.9-4.1-1.6
			c-3.8-2-7.6-4.1-11.3-6.2c-7-3.8-14-7.6-21.1-11.5c-1.3-0.7-2.5-1.5-3.4-2.6c0,0-0.1,0-0.2-0.1c0,0.1,0,0.2,0,0.3
			c0.1,0.8,0.6,1.5,1.1,2c0.6,0.6,1.3,1.1,2,1.5c3.5,1.9,7,3.8,10.4,5.7c6,3.3,12,6.5,18,9.8c1.3,0.7,2.5,1.4,3.9,1.9
			C304.5,144.5,306.2,144.7,307.9,144.7z M315.2,141.2c0-0.6-0.1-1.1-0.4-1.5c-0.5-0.9-1.1-1.5-2-2c-1-0.6-2.1-1.2-3.1-1.8
			c-1.1-0.6-2.2-1.2-3.4-1.8c-0.4,0.3-0.7,0.5-1.1,0.8c0.2,0.1,0.3,0.2,0.4,0.2c1.9,1,3.8,2,5.7,3.1
			C312.7,138.9,314.2,139.6,315.2,141.2z M285.5,122.7c-0.2-0.1-0.3-0.2-0.5-0.3c-1.5-0.8-3-1.6-4.4-2.4c-1.7-0.9-3.4-1.6-5.3-1.8
			c-0.7-0.1-1.4-0.1-2.2-0.2c0.1,0.1,0.2,0.2,0.3,0.2c1.1,0.2,2.1,0.5,3.1,1c1.4,0.7,2.8,1.5,4.2,2.2c1,0.6,2.1,1.1,3.1,1.7
			c0.2,0.1,0.3,0.2,0.5,0.1C284.8,123.2,285.1,123,285.5,122.7z"/>
		<path class="st58" d="M277.2,166.1c0.5,0.3,1.1,0.6,1.7,0.9c-2.8,1.8-5.5,3.6-8.3,5.4c-0.5-0.3-1-0.6-1.6-0.9
			c0.5-0.4,1-0.7,1.6-1.1c-0.2-0.1-0.3-0.2-0.5-0.3c-4.5-2.5-9.1-5-13.6-7.6c-5.7-3.2-11.5-6.4-17.2-9.6c-4.1-2.3-8.2-4.6-12.3-6.9
			c-0.3-0.2-0.5-0.2-0.7,0c-0.3,0.2-0.7,0.4-1.1,0.6c-0.1,0.1-0.3,0.1-0.4,0.1c-0.5-0.2-0.9-0.5-1.5-0.8c0.6-0.4,1.1-0.7,1.7-1
			c-0.7-0.4-1.2-0.7-1.8-1c-1.9-1-3.7-2.1-5.6-3.1c-1-0.6-1.9-1.2-2.6-2.1c-0.5-0.6-0.9-1.2-1.1-2c-0.4-1.4-0.1-2.7,0.9-3.8
			c0.3-0.3,0.6-0.6,1-0.9c0.8-0.5,1.6-1,2.4-1.5c0.5,0.3,1,0.6,1.6,0.9c-0.5,0.3-1,0.6-1.4,0.8c-0.3,0.2-0.6,0.3-0.8,0.6
			c-0.5,0.4-0.5,0.9-0.2,1.4c0.3,0.4,0.7,0.8,1.1,1c1,0.6,2.1,1.2,3.1,1.8c2.7,1.5,5.4,3,8,4.5c0.2,0.1,0.3,0.2,0.5,0.3
			c0.7-0.4,1.5-0.8,2.2-1.3c0.3-0.2,0.6-0.2,0.9,0c0.3,0.2,0.7,0.4,1.1,0.6c-0.9,0.5-1.7,1-2.6,1.6c0.4,0.2,0.8,0.4,1.1,0.6
			c13,7.2,26,14.4,38.9,21.6c1.1,0.6,2.3,1.2,3.4,1.9c0.3,0.2,0.5,0.2,0.8,0C276.3,166.7,276.7,166.4,277.2,166.1z M215.2,135.8
			c0,0.2,0,0.2,0,0.3c0,0.7,0.3,1.4,0.8,1.9c0.6,0.8,1.5,1.4,2.4,1.9c2.7,1.5,5.3,3,8,4.5c4,2.2,8,4.5,12,6.7c4.5,2.5,9,5,13.6,7.5
			c5.3,3,10.7,5.9,16,8.9c1.3,0.7,2.5,1.4,3.8,2.1c0.4-0.3,0.9-0.5,1.3-0.8c-0.2-0.1-0.2-0.2-0.3-0.2c-6-3.3-11.9-6.6-17.9-9.9
			c-4-2.2-8.1-4.5-12.1-6.7c-4.1-2.3-8.2-4.6-12.4-6.9c-4-2.2-8-4.5-12-6.7C217.1,137.7,216,137,215.2,135.8z"/>
		<path class="st58" d="M279.7,164.5c0.6-0.4,1-0.7,1.6-1c-14.6-8.1-29.1-16.1-43.7-24.2c-0.6,0.3-1.1,0.6-1.7,1
			c-0.5-0.3-1-0.6-1.6-0.9c0.2-0.1,0.3-0.2,0.4-0.3c2-1.2,4-2.4,5.9-3.6c0.3-0.2,0.5-0.2,0.8,0c6.7,3.7,13.4,7.4,20.1,11.1
			c8,4.4,16,8.8,24,13.2c0.7,0.4,0.5,0.4,1.2,0c0.3-0.2,0.7-0.5,1-0.6c0.3,0,0.7,0.3,1,0.5c0.2,0.1,0.3,0.2,0.6,0.3
			c-0.1,0.1-0.2,0.2-0.3,0.3c-2.4,1.6-4.9,3.2-7.3,4.8c-0.3,0.2-0.5,0.2-0.8,0C280.6,164.9,280.2,164.7,279.7,164.5z M238.9,138.5
			c0.2,0.1,0.3,0.2,0.5,0.3c12.8,7.1,25.6,14.2,38.4,21.3c1.4,0.8,2.9,1.6,4.3,2.4c0.1,0.1,0.4,0.2,0.5,0.1c0.4-0.2,0.8-0.4,1.1-0.8
			c-14.5-8-29-16-43.5-24.1C239.8,138,239.4,138.2,238.9,138.5z"/>
		<path class="st58" d="M235.8,132.3c-0.1,0.1-0.2,0.1-0.3,0.2c-1.5,0.9-3,1.8-4.5,2.6c-0.2,0.1-0.4,0.2-0.7,0
			c-3.3-1.8-6.5-3.6-9.8-5.4c-0.1-0.1-0.2-0.1-0.4-0.3c0.1-0.1,0.3-0.2,0.4-0.3c1.4-0.8,2.9-1.7,4.3-2.5c0.3-0.2,0.5-0.2,0.8,0
			c3.3,1.8,6.6,3.6,9.9,5.5C235.6,132.2,235.6,132.3,235.8,132.3z M231.6,133c-0.2-0.1-0.3-0.2-0.4-0.2c-0.7-0.4-1.3-0.7-2-1.1
			c-1.6-0.9-3.1-1.7-4.7-2.6c-0.2-0.1-0.3-0.2-0.5-0.1c-0.4,0.2-0.7,0.4-1.1,0.7c0.2,0.1,0.3,0.2,0.5,0.3c1.1,0.6,2.2,1.2,3.3,1.8
			c1.1,0.6,2.2,1.2,3.3,1.8c0.2,0.1,0.3,0.2,0.5,0.1C230.9,133.4,231.2,133.2,231.6,133z"/>
	</g>
	<g class="st52">
		<path class="st66" d="M109.6,342.3c-2.1,1.3-4.2,2.5-6.2,3.7c-6.2-3.7-12.4-7.4-18.6-11.1c-1,0.6-2,1.2-3.1,1.8
			c21.9,13.1,43.7,26.2,65.5,39.2c0.7-0.5,1.4-0.9,2.1-1.3c0.6,0.3,1.1,0.7,1.8,1.1c-0.2,0.1-0.3,0.2-0.4,0.3
			c-3.3,2.2-6.7,4.4-10,6.6c-0.3,0.2-0.5,0.2-0.8,0c-0.4-0.3-0.9-0.5-1.4-0.9c0.7-0.5,1.4-0.9,2.1-1.4c-0.2-0.1-0.4-0.3-0.6-0.4
			c-11.1-6.7-22.1-13.3-33.2-19.9c-10.5-6.3-20.9-12.6-31.4-18.9c-0.5-0.3-0.8-0.3-1.3,0c-0.8,0.5-1.6,1-2.5,1.5
			c6.3,3.8,12.5,7.5,18.7,11.3c-0.2,0.1-0.4,0.3-0.5,0.3c-1.8,1.1-3.6,2.2-5.5,3.3c-0.3,0.2-0.6,0.2-0.9,0c-6.6-4-13.2-8-19.7-12
			c-0.1-0.1-0.2-0.2-0.4-0.3c0.2-0.1,0.4-0.2,0.5-0.3c8.3-4.8,16.7-9.7,25-14.5c0.4-0.2,0.7-0.2,1,0c6.4,3.8,12.8,7.6,19.1,11.4
			C109.1,342,109.3,342.1,109.6,342.3z M143.8,378.1c-0.2-0.2-0.4-0.3-0.6-0.4c-20.1-12.1-40.2-24.1-60.3-36.2
			c-1.4-0.9-2.8-1.7-4.3-2.6c-0.2-0.1-0.4-0.2-0.5-0.1c-0.5,0.3-1,0.6-1.6,0.9c0.3,0.2,0.4,0.3,0.6,0.4c7,4.2,13.9,8.4,20.9,12.6
			c14.6,8.8,29.1,17.5,43.7,26.3c0.1,0.1,0.2,0.1,0.3,0.2c0.1,0,0.3,0.1,0.4,0C142.8,378.8,143.2,378.4,143.8,378.1z M85.6,354.6
			c-0.2-0.1-0.3-0.2-0.5-0.3c-4.4-2.6-8.7-5.3-13.1-7.9c-1-0.6-2.1-1.3-3.1-1.9c-0.1-0.1-0.4-0.2-0.5-0.1c-0.5,0.3-1,0.6-1.6,0.9
			c5.8,3.5,11.4,6.9,17.1,10.3C84.5,355.3,85,355,85.6,354.6z M105,343c-5.7-3.4-11.3-6.7-16.9-10.1c-0.6,0.3-1.1,0.6-1.7,1
			c5.7,3.4,11.3,6.7,16.9,10.1C103.9,343.6,104.4,343.3,105,343z"/>
		<path class="st66" d="M217.8,334.8c0.2-0.1,0.3-0.2,0.4-0.3c1.6-1,3.2-2.1,4.7-3.1c0.3-0.2,0.6-0.2,0.9,0c1.7,1,3.4,2,5.1,2.9
			c0.8,0.4,1.6,0.8,2.5,1.2c1,0.4,2.1,0.5,3.2,0.2c0.5-0.2,0.9-0.4,1.3-0.7c0.7-0.5,0.7-1.2,0.2-1.8c-0.4-0.5-1-1-1.6-1.3
			c-1.5-0.8-2.9-1.7-4.4-2.5c-2.1-1.2-4.1-2.4-6.2-3.5c-0.1-0.1-0.3-0.1-0.4-0.2c0,0.1-0.1,0.1-0.1,0.2c0,0.9-0.4,1.7-1,2.4
			c-1.1,1.1-2.4,1.8-3.8,2.3c-2.2,0.8-4.3,0.8-6.6,0.3c-2.2-0.5-4.2-1.4-6.1-2.5c-10.3-5.9-20.6-11.9-30.9-17.8
			c-0.7-0.4-1.4-0.8-2.1-1.3c-0.8-0.5-1.5-1.1-2.3-1.8c-0.5-0.5-1-1-1.3-1.7c-0.4-0.9-0.4-1.7,0.1-2.6c0.4-0.6,0.9-1.1,1.4-1.5
			c1.9-1.4,4-2.1,6.3-2.2c0.2,0,0.3,0,0.5-0.1c-0.3-0.2-0.7-0.4-1.1-0.7c2.6-1.5,5-3,7.6-4.5c0.5,0.3,1,0.6,1.6,0.9
			c-0.6,0.4-1.2,0.7-1.8,1.1c0.2,0.1,0.3,0.2,0.5,0.3c4,2.3,8,4.6,12,6.8c12.9,7.4,25.8,14.7,38.7,22.1c1,0.6,1.9,1.2,2.7,2
			c1,0.9,1.7,2,2,3.3c0.3,1.3,0.1,2.5-0.7,3.5c-0.8,1.1-1.9,1.9-3.1,2.5c-1.6,0.9-3.4,1.3-5.2,1.4c-1.6,0.2-3.1,0.1-4.7,0
			c-1.5-0.2-3-0.5-4.5-1c-1.5-0.5-2.8-1.3-4.1-2.1C217.9,335,217.9,334.9,217.8,334.8z M178.7,300.4c-0.2,0-0.5,0-0.7,0
			c-1,0.1-1.9,0.3-2.8,0.9c-0.7,0.5-0.8,1.1-0.2,1.8c0.3,0.3,0.6,0.6,0.9,0.8c0.8,0.5,1.6,1,2.4,1.5c12.2,7,24.4,14,36.6,21
			c0.8,0.5,1.7,0.8,2.6,1.1c1.1,0.3,2.3,0.3,3.3-0.4c0.6-0.4,0.9-1,0.9-1.8c0-0.5-0.1-0.8-0.6-1.1c-13.5-7.7-27.1-15.5-40.6-23.2
			C180,300.5,179.4,300.3,178.7,300.4z M237.7,333c0,0,0.1,0,0.1-0.1c0-0.2,0-0.5-0.1-0.7c-0.1-0.9-0.6-1.6-1.2-2.3
			c-0.7-0.8-1.6-1.4-2.6-2c-2.4-1.4-4.8-2.7-7.2-4.1c-15-8.6-30-17.1-45-25.7c-0.2-0.1-0.3-0.2-0.5-0.3c-0.5,0.3-0.9,0.6-1.4,0.9
			c0.2,0.1,0.4,0.2,0.5,0.3c11.7,6.7,23.4,13.4,35,20c6.3,3.6,12.6,7.2,18.9,10.8c0.5,0.3,0.9,0.6,1.3,0.9
			C236.5,331.4,237.2,332.1,237.7,333z M217,329.5c0,0,0-0.1,0-0.1c-0.1,0-0.2,0-0.3-0.1c-1.2-0.1-2.5-0.4-3.6-0.9
			c-0.9-0.4-1.8-0.8-2.7-1.3c-8.1-4.7-16.3-9.3-24.4-14c-3.6-2-7.1-4.1-10.7-6.1c-0.9-0.5-1.7-1.1-2.5-1.8c-0.5-0.4-0.9-1-1.1-1.6
			c0-0.1-0.1-0.2-0.1-0.3c-0.6,0.7-0.7,1.4-0.3,2.2c0.5,1,1.4,1.7,2.3,2.2c1.7,1.1,3.5,2.1,5.3,3.1c9.9,5.7,19.7,11.4,29.6,17
			c1.1,0.7,2.4,1.2,3.6,1.6c1.1,0.3,2.3,0.5,3.5,0.4C216.1,329.7,216.5,329.6,217,329.5z M220.9,334.9c2.1,1.6,6.2,2.6,8.5,2.2
			c-1.4-0.3-2.6-0.7-3.7-1.2c-1.2-0.6-2.3-1.2-3.4-1.8C221.8,334.3,221.4,334.6,220.9,334.9z"/>
		<path class="st66" d="M154.6,342.6c-4,2.5-7.9,5-11.9,7.4c0.2,0.1,0.4,0.2,0.5,0.3c6.3,3.7,12.6,7.5,18.9,11.2
			c1.1,0.6,2.2,1.2,3.4,1.3c1.4,0.2,2.7-0.1,3.8-0.9c1.1-0.8,1.1-1.7,0.2-2.7c-0.5-0.5-1.2-1-1.8-1.4c-3.2-1.9-6.4-3.8-9.6-5.7
			c-0.2-0.1-0.4-0.2-0.7-0.4c2.1-1.3,4.1-2.6,6.2-3.9c0.1,0.1,0.3,0.1,0.4,0.2c2,1.2,4,2.4,6,3.5c1.1,0.6,2,1.4,2.8,2.3
			c1.1,1.3,1.7,2.7,1.6,4.4c-0.1,1.3-0.7,2.4-1.6,3.3c-1.2,1.3-2.7,2.1-4.3,2.8c-2.6,1.1-5.3,1.4-8,1.2c-1.7-0.1-3.4-0.4-5-0.8
			c-1.3-0.4-2.6-1-3.8-1.7c-10.7-6.4-21.4-12.7-32.1-19.1c-0.9-0.5-1.8-1.1-2.5-1.9c-0.7-0.7-1.3-1.6-1.6-2.6
			c-0.5-1.6-0.3-3.2,0.7-4.6c0.6-0.9,1.4-1.6,2.3-2.2c2-1.3,4.2-2.1,6.6-2.4c2.9-0.4,5.7-0.2,8.5,0.5c1.4,0.3,2.7,0.8,4,1.6
			c2.7,1.6,5.4,3.2,8.2,4.8c2.8,1.7,5.7,3.3,8.5,5C154.2,342.4,154.3,342.5,154.6,342.6z M146.5,345.5c-0.2-0.2-0.4-0.3-0.6-0.4
			c-6.2-3.6-12.3-7.3-18.5-10.9c-0.8-0.5-1.7-0.8-2.6-1.1c-0.8-0.2-1.7-0.3-2.5-0.1c-0.9,0.2-1.7,0.6-2.4,1.2
			c-0.4,0.4-0.7,1.1-0.2,1.7c0.2,0.2,0.3,0.5,0.5,0.7c0.5,0.4,1,0.8,1.5,1.1c5.8,3.5,11.6,6.9,17.5,10.4c0.5,0.3,1.1,0.6,1.6,1
			C142.8,347.9,144.6,346.7,146.5,345.5z M117.2,337.7C117.1,337.7,117.1,337.8,117.2,337.7c-0.1,0.3-0.1,0.6-0.1,0.8
			c0.1,1,0.5,1.8,1.2,2.5c0.6,0.7,1.4,1.2,2.2,1.7c11.1,6.6,22.2,13.2,33.3,19.8c1.3,0.8,2.8,1.4,4.3,1.7c1.3,0.3,2.7,0.4,4.1,0.3
			c-0.1-0.1-0.2-0.1-0.3-0.2c-0.7-0.2-1.4-0.4-2.1-0.6c-1.2-0.4-2.2-1-3.3-1.6c-9.7-5.7-19.3-11.5-29-17.2c-2.3-1.4-4.6-2.7-6.8-4.1
			c-1.1-0.7-2.2-1.4-3-2.5C117.5,338.2,117.3,338,117.2,337.7z M124.8,332c0.1,0,0.3,0.1,0.4,0.1c1.8,0.3,3.5,1,5.1,1.9
			c4.5,2.7,9,5.3,13.5,8c1.3,0.8,2.5,1.5,3.8,2.2c0.1,0.1,0.4,0.2,0.5,0.1c0.5-0.3,0.9-0.6,1.5-0.9c-0.2-0.1-0.3-0.2-0.4-0.3
			c-5.2-3.1-10.5-6.2-15.7-9.3C130.8,332.4,127.9,331.8,124.8,332z M171.6,359.7c0.2-1.2-0.2-2.3-1-3.2c-0.6-0.7-1.2-1.3-2-1.7
			c-1.3-0.8-2.7-1.6-4-2.4c-0.8-0.5-1.6-0.9-2.4-1.4c-0.5,0.3-1,0.6-1.6,1c0.3,0.2,0.5,0.3,0.8,0.5c2.2,1.3,4.3,2.5,6.5,3.8
			C169.4,357.1,170.8,358.1,171.6,359.7z"/>
		<path class="st66" d="M187.5,322c-3.7,2.3-7.4,4.6-11.1,7c0.2,0.1,0.3,0.2,0.5,0.3c4,2.3,8,4.6,12,7c2.2,1.3,4.4,2.6,6.6,3.9
			c0.8,0.5,1.7,0.9,2.6,1.1c1.5,0.4,2.9,0.3,4.1-0.6c0.2-0.2,0.4-0.3,0.6-0.5c0.4-0.4,0.4-0.9,0.1-1.5c-0.2-0.5-0.6-0.8-1-1.1
			c-0.9-0.6-1.8-1.1-2.7-1.6c-2.7-1.6-5.4-3.1-8.1-4.7c-0.2-0.1-0.3-0.2-0.5-0.3c2-1.3,3.9-2.5,5.8-3.7c0.1,0,0.2,0.1,0.3,0.1
			c2,1.2,4,2.3,6,3.5c0.7,0.4,1.4,0.9,2.1,1.5c0.8,0.7,1.5,1.6,1.9,2.6c0.8,1.9,0.5,3.7-0.9,5.3c-1.2,1.4-2.8,2.3-4.5,2.9
			c-2,0.8-4.1,1-6.3,1c-2.5,0-4.8-0.4-7.1-1.3c-0.8-0.3-1.6-0.7-2.3-1.1c-10.5-6.1-21-12.2-31.5-18.4c-1-0.6-2-1.3-2.7-2.2
			c-0.7-0.8-1.3-1.7-1.5-2.8c-0.3-1.6,0.1-3,1.2-4.2c1.1-1.2,2.5-2,3.9-2.6c1.7-0.7,3.5-1.1,5.3-1.2c2.7-0.2,5.4,0.1,8,1
			c1.2,0.4,2.2,0.9,3.3,1.5c5.2,3,10.4,6,15.5,9C187.1,321.7,187.2,321.8,187.5,322z M179.9,324.7c-0.9-0.5-1.8-1-2.6-1.5
			c-5.3-3.1-10.6-6.1-15.9-9.2c-0.7-0.4-1.5-0.8-2.3-1.1c-0.9-0.3-1.9-0.4-2.9-0.2c-0.8,0.2-1.5,0.5-2.1,1.1
			c-0.5,0.5-0.5,1.1-0.1,1.7c0.1,0.1,0.2,0.2,0.3,0.3c0.5,0.5,1.1,0.9,1.7,1.3c6.1,3.5,12.2,7.1,18.2,10.6c0.3,0.2,0.6,0.2,0.9,0
			c1.5-0.9,2.9-1.8,4.4-2.8C179.5,324.9,179.6,324.8,179.9,324.7z M195.4,342.8c0,0,0-0.1,0-0.1c-0.4-0.1-0.8-0.2-1.1-0.3
			c-1.5-0.4-3-1.1-4.3-1.9c-9.9-5.8-19.7-11.5-29.6-17.2c-1.9-1.1-3.9-2.2-5.8-3.4c-1.2-0.7-2.2-1.6-3-2.8c0,0-0.1,0-0.1,0
			c0,0,0,0.1-0.1,0.1c0,0.1,0,0.2,0,0.3c0,1,0.4,1.8,1,2.5c0.6,0.8,1.4,1.3,2.3,1.8c10.9,6.3,21.7,12.6,32.5,19
			c1.5,0.9,3,1.5,4.7,1.8C193.1,342.8,194.3,342.9,195.4,342.8z M182.8,322.8c-0.2-0.1-0.2-0.2-0.3-0.2c-5.3-3.1-10.6-6.2-15.9-9.2
			c-2.3-1.3-4.8-1.8-7.5-1.7c-0.1,0-0.2,0.1-0.3,0.1c1.2,0.2,2.4,0.6,3.5,1.1c0.7,0.3,1.4,0.7,2,1.1c4.6,2.7,9.3,5.4,13.9,8
			c0.9,0.5,1.9,1.1,2.8,1.6c0.2,0.1,0.3,0.2,0.5,0.1C181.9,323.4,182.3,323.1,182.8,322.8z M204.4,338.4c0-0.2,0.1-0.2,0.1-0.3
			c0-0.6-0.1-1.1-0.3-1.6c-0.5-1-1.2-1.8-2.1-2.4c-1-0.6-2-1.2-3-1.8c-1.2-0.7-2.3-1.4-3.5-2c-0.1-0.1-0.4-0.2-0.5-0.1
			c-0.5,0.2-0.9,0.5-1.3,0.9c0.2,0.1,0.4,0.2,0.5,0.3c2.2,1.3,4.5,2.6,6.7,3.9C202.3,335.9,203.6,336.8,204.4,338.4z"/>
		<path class="st66" d="M338.5,252.8c-2,1.3-3.9,2.6-5.9,3.8c-1.1-0.6-2.1-1.1-3.2-1.7c-5-2.7-10-5.4-15-8.1
			c-7.4-4-14.7-7.9-22.1-11.9c-0.8-0.4-1.6-0.7-2.4-1c-0.6-0.2-1.2-0.3-1.9-0.2c-0.4,0.1-0.8,0.2-1.2,0.5c-0.4,0.3-0.6,0.7-0.6,1.2
			c0,0.4,0.1,0.8,0.6,1c8.7,4.7,17.4,9.4,26.1,14c4.6,2.5,9.2,5,13.8,7.4c0.2,0.1,0.4,0.2,0.5,0.3c0.5-0.3,0.9-0.6,1.5-0.9
			c0.5,0.3,1,0.5,1.6,0.8c-2.5,1.7-5,3.3-7.4,4.9c-0.5-0.3-1-0.5-1.6-0.9c0.5-0.3,0.9-0.6,1.4-0.9c-0.1-0.1-0.2-0.2-0.3-0.2
			c-6.9-3.7-13.7-7.4-20.6-11.1c-9.6-5.2-19.2-10.4-28.8-15.5c-2.6-1.4-5.1-2.7-7.6-4.1c-0.3-0.2-0.5-0.2-0.8,0
			c-0.4,0.2-0.7,0.4-1.1,0.7c-0.5-0.3-1-0.5-1.5-0.8c0.1-0.1,0.2-0.2,0.3-0.2c1.9-1.1,3.7-2.2,5.6-3.3c0.3-0.2,0.5-0.1,0.7,0.1
			c4.6,2.5,9.3,5,13.9,7.5c0.7,0.3,1.3,0.7,2,1c0.1,0,0.2,0.1,0.3,0.1c0-0.1,0.1-0.1,0.1-0.1c-0.1-0.9,0.4-1.6,1.1-2.2
			c1.3-1.1,2.9-1.6,4.6-1.8c2.3-0.2,4.5,0.4,6.6,1.3c2,0.8,3.9,1.9,5.8,3c6.6,3.5,13.3,7.1,19.9,10.7c4.1,2.2,8.3,4.4,12.4,6.6
			c0.1,0.1,0.2,0.1,0.3,0.1c0.4-0.2,0.7-0.5,1.1-0.7c0.2-0.2,0.4-0.2,0.7,0C337.6,252.3,338,252.5,338.5,252.8z M266.2,229.3
			c0.2,0.1,0.4,0.2,0.6,0.3c5.2,2.8,10.3,5.6,15.5,8.3c12.3,6.7,24.7,13.3,37,20c1.4,0.8,2.9,1.5,4.3,2.3c0.2,0.1,0.3,0.2,0.5,0.1
			c0.3-0.2,0.6-0.4,1-0.7c-19.3-10.4-38.5-20.7-57.6-31.1c-0.3,0.2-0.6,0.4-1,0.6C266.3,229.2,266.3,229.2,266.2,229.3z
			 M289.4,232.8c2.4,0.7,2.9,0.9,4.5,1.7c4,2.1,8,4.3,11.9,6.4c6.9,3.7,13.8,7.4,20.7,11.1c1.7,0.9,3.4,1.8,5.1,2.7
			c0.1,0.1,0.4,0.2,0.5,0.1c0.3-0.2,0.6-0.4,1-0.6c-0.2-0.1-0.3-0.2-0.4-0.3c-6.6-3.5-13.1-7-19.7-10.6c-5.8-3.1-11.6-6.2-17.4-9.3
			c-1.4-0.8-2.9-1.3-4.6-1.4C290.6,232.7,290,232.6,289.4,232.8z"/>
		<path class="st66" d="M225.3,286.4c-0.2,0.1-0.3,0.2-0.5,0.3c-1.5,0.9-3,1.8-4.4,2.7c-0.3,0.2-0.6,0.2-0.9,0
			c-1.8-1.1-3.7-2.1-5.5-3.1c-1.3-0.7-2.4-1.5-3.4-2.7c-0.6-0.7-1-1.4-1.1-2.3c-0.2-1.2,0.2-2.2,1-3.1c0.8-0.8,1.7-1.4,2.7-1.9
			c1.6-0.8,3.2-1.2,5-1.4c2.6-0.2,5.2,0.2,7.7,1.1c1.7,0.6,3.2,1.5,4.7,2.3c3.5,1.9,6.9,3.9,10.4,5.8c8.1,4.5,16.2,9,24.3,13.5
			c1,0.6,0.6,0.5,1.6,0c0.3-0.2,0.6-0.5,0.9-0.5c0.3,0,0.6,0.3,1,0.4c0.2,0.1,0.4,0.2,0.6,0.3c-0.3,0.3-5.5,3.8-6.7,4.5
			c-0.4-0.2-0.8-0.4-1.2-0.6c0,0.1-0.1,0.2,0,0.3c0,0.8-0.3,1.4-0.8,2c-0.5,0.5-1.1,1-1.7,1.3c-1.9,1.1-4,1.5-6.1,1.2
			c-1.2-0.1-2.4-0.4-3.6-0.8c-1.4-0.5-2.7-1.1-4-1.8c-3.6-2-7.2-4-10.7-6c-1-0.6-2-1.3-2.9-2.1c-0.6-0.5-1.1-1.1-1.4-1.8
			c-0.5-1-0.5-2,0.1-3.1c0.4-0.7,0.9-1.3,1.5-1.7c0.9-0.7,1.9-1.3,2.8-1.9c0.2-0.1,0.4-0.2,0.6-0.4c-0.2-0.1-0.3-0.2-0.4-0.3
			c-3.4-1.9-6.8-3.8-10.1-5.7c-1.5-0.9-3.1-1.7-4.6-2.6c-0.9-0.5-1.9-1-2.9-1.2c-0.8-0.2-1.6-0.2-2.4,0.2c-0.3,0.1-0.5,0.3-0.8,0.5
			c-0.3,0.3-0.4,0.7-0.1,1.1c0.2,0.3,0.5,0.7,0.9,0.9c0.5,0.4,1,0.7,1.5,1c3,1.7,5.9,3.3,8.9,5C224.9,286.2,225,286.3,225.3,286.4z
			 M236.6,288.1c-0.6,0.4-1.2,0.8-1.8,1.1c-0.1,0.1-0.2,0.1-0.3,0.2c-0.8,0.7-0.8,1.4-0.1,2.1c0.5,0.4,1,0.8,1.6,1.2
			c5.8,3.3,11.6,6.5,17.4,9.8c0.6,0.3,1.3,0.6,1.9,0.9c0.5,0.2,1.1,0.3,1.7,0.4c0.7,0.1,1.4-0.1,1.9-0.6c0.5-0.4,0.6-1,0.6-1.6
			c0-0.6-0.4-0.8-0.8-1c-6-3.4-12.1-6.8-18.1-10.1C239.3,289.6,238,288.8,236.6,288.1z M263.4,299.9c-0.3-0.2-0.5-0.3-0.7-0.4
			c-7.6-4.3-15.3-8.5-22.9-12.8c-5.1-2.9-10.3-5.7-15.4-8.6c-2.2-1.2-4.5-1.8-7-1.8c-0.1,0-0.2,0-0.3,0c-0.1,0-0.2,0-0.3,0
			c1.9,0.4,3.7,1.1,5.3,2.1c4,2.2,8,4.5,12,6.7c9.1,5.1,18.2,10.2,27.4,15.3c0.2,0.1,0.3,0.2,0.5,0.3
			C262.5,300.5,262.9,300.2,263.4,299.9z M231.6,292.4c0,0-0.1,0-0.1,0c0,0.4,0,0.7,0.1,1c0.1,0.6,0.5,1,0.9,1.5
			c0.8,0.8,1.6,1.4,2.5,1.9c4.2,2.4,8.4,4.7,12.6,7.1c1.1,0.6,2.2,1.1,3.4,1.4c1.2,0.3,2.5,0.5,3.7,0.3c0.2,0,0.5-0.1,0.7-0.1
			c0,0,0-0.1,0-0.1c-0.3,0-0.6-0.1-0.9-0.1c-1.8-0.3-3.4-0.9-5-1.8c-1.1-0.6-2.1-1.2-3.2-1.8c-3.7-2.1-7.5-4.2-11.2-6.3
			c-1-0.5-1.9-1.2-2.7-2C232.2,293.1,231.9,292.8,231.6,292.4z M211.3,280.8c-0.1,0.8,0.2,1.5,0.6,2.1c0.7,1,1.7,1.7,2.8,2.3
			c1.5,0.8,3,1.7,4.5,2.5c0.1,0.1,0.3,0.1,0.4,0.2c0.4-0.3,0.9-0.5,1.3-0.8c-0.2-0.1-0.4-0.2-0.6-0.3c-1.9-1.1-3.9-2.2-5.8-3.3
			C213.4,282.8,212.2,282,211.3,280.8z"/>
		<path class="st66" d="M190.2,347.7c0.6,0.3,1.1,0.7,1.7,1c-0.1,0.1-0.3,0.2-0.4,0.3c-3,2-6.1,4-9.1,6c-0.3,0.2-0.5,0.2-0.8,0
			c-0.4-0.3-0.9-0.5-1.3-0.8c0.7-0.4,1.2-0.8,1.9-1.3c-21.4-12.5-42.7-25-64-37.6c-0.6,0.3-1.1,0.6-1.6,0.9c-0.3,0.2-0.5,0.2-0.8,0
			c-0.4-0.3-0.8-0.5-1.2-0.7c0.3-0.3,6.6-4.1,8.2-4.9c0.2,0.1,0.3,0.2,0.5,0.3c10.7,6.3,21.4,12.5,32.1,18.8
			c10.8,6.3,21.5,12.6,32.3,18.9c0.4,0.2,0.7,0.2,1.1,0C189.2,348.3,189.7,348.1,190.2,347.7z M185.3,351c-0.2-0.2-0.4-0.3-0.6-0.3
			c-10.1-5.9-20.2-11.9-30.4-17.8c-9.7-5.7-19.4-11.4-29.1-17.1c-1.2-0.7-2.3-1.4-3.5-2c-0.1-0.1-0.4-0.2-0.5-0.1
			c-0.5,0.2-1,0.5-1.5,0.9c21.4,12.5,42.7,25,64,37.5C184.2,351.7,184.7,351.3,185.3,351z"/>
		<path class="st66" d="M277.1,275.6c0.1-0.1,0.2-0.1,0.2-0.2c1.4-0.9,2.9-1.8,4.3-2.8c0.3-0.2,0.5-0.1,0.7,0
			c2.9,1.6,5.8,3.2,8.7,4.8c0.9,0.5,1.8,1,2.8,1.2c0.7,0.2,1.5,0.3,2.2,0.1c0.4-0.1,0.8-0.3,1.2-0.5c0.6-0.4,0.7-1,0.2-1.5
			c-0.4-0.4-0.8-0.8-1.3-1.1c-0.9-0.5-1.7-1-2.6-1.5c-1.9-1-3.8-2.1-5.7-3.1c-2.5-1.3-5.2-2.1-8-2.3c-3.6-0.2-7.2-0.4-10.7-0.6
			c-1.9-0.1-3.9-0.3-5.8-0.9c-1.4-0.4-2.8-0.9-4.1-1.6c-2.3-1.2-4.5-2.5-6.8-3.7c-1-0.6-1.9-1.4-2.6-2.3c-0.5-0.6-0.8-1.3-0.9-2.1
			c-0.2-0.9,0.1-1.8,0.6-2.5c0.4-0.5,0.9-1,1.5-1.3c1.4-0.9,3-1.5,4.7-1.7c4.2-0.5,8.2,0.4,11.9,2.4c1.6,0.9,3.1,1.7,4.7,2.6
			c0.1,0.1,0.2,0.2,0.4,0.3c-1.6,1-3.2,2-4.8,3c-0.8-0.4-1.6-0.9-2.3-1.3c-2.3-1.3-4.6-2.6-7-3.8c-0.8-0.4-1.6-0.7-2.4-1
			c-0.8-0.3-1.7-0.3-2.5-0.1c-0.3,0.1-0.5,0.2-0.8,0.4c-0.6,0.4-0.7,1-0.2,1.5c0.4,0.4,0.8,0.8,1.2,1c1.7,1,3.3,1.9,5,2.8
			c1.3,0.7,2.5,1.4,3.8,2c2.1,0.9,4.3,1.5,6.6,1.6c2.6,0.1,5.3,0.3,7.9,0.5c1.3,0.1,2.7,0.2,4,0.2c2.1,0.1,4.1,0.6,6.1,1.4
			c2.2,0.8,4.2,2,6.3,3.1c1.3,0.7,2.6,1.4,3.8,2.2c1,0.6,1.8,1.3,2.5,2.2c0.6,0.8,1,1.6,1.1,2.5c0.1,0.9-0.2,1.6-0.7,2.3
			c-0.6,0.7-1.3,1.3-2.1,1.7c-1.7,1-3.5,1.4-5.4,1.5c-3.8,0.2-7.3-0.7-10.6-2.5c-1.6-0.9-3.2-1.8-4.9-2.7
			C277.4,275.8,277.3,275.7,277.1,275.6z M250.7,257.4c-0.1,0.6,0.1,1.1,0.4,1.6c0.6,1,1.5,1.7,2.5,2.3c1.1,0.6,2.1,1.2,3.2,1.8
			c1.7,0.9,3.3,1.9,5.1,2.5c1.3,0.5,2.5,0.9,3.8,1.1c1.2,0.2,2.4,0.3,3.6,0.3c2.1,0.2,4.3,0.3,6.4,0.4c1.8,0.1,3.5,0.2,5.3,0.3
			c2.3,0.2,4.5,0.9,6.5,1.9c2.8,1.4,5.6,3,8.3,4.5c0.8,0.4,1.5,1,2.1,1.6c0.3,0.3,0.5,0.6,0.8,0.9c0-0.7-0.2-1.3-0.5-1.8
			c-0.5-0.9-1.2-1.5-2.1-2c-1.4-0.8-2.8-1.6-4.2-2.4c-1.9-1-3.7-2.1-5.8-2.8c-1.4-0.5-2.9-1-4.4-1.1c-1.4-0.1-2.8-0.2-4.2-0.3
			c-2.6-0.2-5.1-0.3-7.7-0.5c-1.4-0.1-2.8-0.1-4.2-0.4c-1.9-0.4-3.7-1.1-5.5-2c-2.1-1.1-4.1-2.2-6.2-3.4c-1-0.5-1.9-1.2-2.7-1.9
			C251.1,257.9,250.9,257.6,250.7,257.4z M255.9,253.3c0.2,0,0.3,0.1,0.5,0.1c1,0.2,1.9,0.4,2.8,0.9c1.2,0.6,2.4,1.2,3.5,1.8
			c1.4,0.8,2.8,1.6,4.3,2.3c0.1,0.1,0.3,0.2,0.4,0.1c0.4-0.2,0.8-0.4,1.1-0.7c-0.2-0.1-0.3-0.2-0.4-0.2c-1.5-0.8-2.9-1.6-4.4-2.4
			c-1.3-0.7-2.7-1.3-4.3-1.7C258.3,253.3,257.1,253.2,255.9,253.3z M291.7,280c-0.1,0-0.1,0-0.2-0.1c-1.5-0.3-2.9-0.9-4.3-1.6
			c-1-0.5-2-1.1-2.9-1.6c-1-0.6-2.1-1.1-3.1-1.7c-0.4,0.3-0.8,0.5-1.2,0.8c0.2,0.1,0.4,0.2,0.5,0.3c1.4,0.8,2.8,1.5,4.2,2.3
			c0.9,0.5,1.9,0.9,2.9,1.2C288.9,279.9,290.3,280.1,291.7,280z"/>
		<path class="st66" d="M234.3,321c-0.5-0.3-1-0.6-1.7-0.9c0.6-0.4,1.1-0.8,1.7-1.2c-0.2-0.1-0.3-0.2-0.5-0.3
			c-14.7-8.4-29.4-16.7-44.2-25.1c-0.4-0.2-0.7-0.3-1.1,0c-0.3,0.2-0.7,0.4-1.1,0.6c-0.1,0.1-0.3,0.1-0.4,0.1
			c-0.5-0.3-1-0.5-1.5-0.8c0.2-0.1,0.3-0.2,0.4-0.3c2.2-1.3,4.4-2.6,6.6-3.9c0.3-0.2,0.6-0.2,0.9,0c0.2,0.2,0.5,0.3,0.7,0.4
			c0-0.1,0.1-0.1,0.1-0.1c0-1.2,0.7-2.1,1.6-2.7c1.6-1.2,3.5-1.7,5.5-1.8c2.2,0,4.4,0.5,6.4,1.4c1,0.4,1.9,0.9,2.9,1.4
			c2,1.1,4,2.3,6,3.4c0.1,0.1,0.2,0.1,0.4,0.3c-1.9,1.1-3.7,2.2-5.5,3.4c-0.4-0.2-0.8-0.5-1.2-0.7c-2.8-1.6-5.7-3.2-8.5-4.8
			c-0.7-0.4-1.5-0.8-2.3-1c-0.7-0.3-1.5-0.4-2.3-0.2c-1,0.3-1.4,0.9-1.4,1.9c0,0.4,0.2,0.6,0.5,0.8c2.7,1.5,5.4,3.1,8.1,4.6
			c11.6,6.5,23.1,13.1,34.6,19.6c0.1,0.1,0.2,0.1,0.3,0.2c0.2,0.2,0.4,0.1,0.6,0c0.5-0.3,1-0.6,1.5-1c0.5,0.3,1.1,0.6,1.6,0.9
			C242.9,315.4,235.1,320.6,234.3,321z M237.1,317.1c-0.3-0.2-0.5-0.3-0.7-0.4c-13.5-7.7-27.1-15.4-40.6-23.1
			c-1.2-0.7-2.3-1.3-3.5-2c-0.1-0.1-0.4-0.2-0.5-0.1c-0.4,0.2-0.9,0.4-1.3,0.8c15.1,8.6,30.1,17.1,45.1,25.7
			C236.2,317.7,236.6,317.4,237.1,317.1z M212.7,292.2c-0.1-0.1-0.1-0.1-0.2-0.2c-2.4-1.3-4.8-2.7-7.2-4c-1.7-0.9-3.5-1.3-5.4-1.2
			c-0.2,0-0.4,0-0.6,0.2c1.7,0.3,3.2,1,4.6,1.8c2.3,1.3,4.6,2.6,6.9,3.9c0.2,0.1,0.3,0.2,0.5,0.3
			C211.8,292.7,212.2,292.5,212.7,292.2z"/>
		<path class="st66" d="M302.5,259.5c0.1-0.1,0.2-0.1,0.3-0.2c1.3-0.9,2.7-1.7,4-2.6c0.2-0.1,0.4-0.2,0.6-0.1
			c2.1,1.2,4.3,2.3,6.4,3.5c1.1,0.6,2,1.4,2.7,2.5c0.6,1,1,2,0.7,3.2c-0.2,0.8-0.6,1.5-1.3,2.1c-0.9,0.8-2,1.4-3.2,1.8
			c-1.8,0.6-3.7,0.7-5.5,0.7c-3-0.1-5.8-0.9-8.5-2.4c-9.5-5.2-19-10.4-28.6-15.6c-1.3-0.7-2.4-1.5-3.3-2.6c-0.5-0.6-0.9-1.3-1-2.1
			c-0.3-1.3,0.1-2.4,1-3.3c1.1-1.1,2.4-1.7,3.9-2.2c1.9-0.6,3.8-0.7,5.7-0.5c1.2,0.1,2.3,0.3,3.4,0.5c1.3,0.3,2.6,0.8,3.8,1.5
			c1.9,1,3.8,2,5.7,3.1c-0.1,0.1-0.2,0.2-0.3,0.3c-1.3,0.8-2.6,1.6-4,2.4c-0.3,0.2-0.5,0.2-0.8,0c-2.9-1.6-5.9-3.2-8.8-4.8
			c-0.9-0.5-1.9-0.9-3-1.1c-0.9-0.1-1.7,0-2.5,0.4c-0.2,0.1-0.4,0.2-0.6,0.4c-0.5,0.5-0.6,1-0.1,1.5c0.2,0.3,0.5,0.5,0.8,0.7
			c0.7,0.5,1.5,0.9,2.3,1.3c4.8,2.6,9.5,5.2,14.3,7.8c4.3,2.3,8.6,4.7,12.9,7c2.7,1.5,5.4,2.9,8.1,4.4c1.1,0.6,2.2,1.1,3.5,1.1
			c0.9,0,1.6-0.2,2.3-0.7c0.7-0.5,0.8-1.1,0.3-1.8c-0.2-0.3-0.5-0.5-0.8-0.7c-0.9-0.5-1.8-1.1-2.7-1.6c-2.4-1.3-4.9-2.6-7.3-4
			C302.8,259.7,302.7,259.6,302.5,259.5z M307.9,269.5c-0.1-0.1-0.1-0.1-0.1-0.1c-0.1,0-0.2-0.1-0.3-0.1c-1.4-0.3-2.8-0.9-4.1-1.6
			c-3.8-2-7.6-4.1-11.3-6.2c-7-3.8-14-7.6-21.1-11.5c-1.3-0.7-2.5-1.5-3.4-2.6c0,0-0.1,0-0.2-0.1c0,0.1,0,0.2,0,0.3
			c0.1,0.8,0.6,1.5,1.1,2c0.6,0.6,1.3,1.1,2,1.5c3.5,1.9,7,3.8,10.4,5.7c6,3.3,12,6.5,18,9.8c1.3,0.7,2.5,1.4,3.9,1.9
			C304.5,269.3,306.1,269.5,307.9,269.5z M315.2,266c0-0.6-0.1-1.1-0.4-1.5c-0.5-0.9-1.1-1.5-2-2c-1-0.6-2.1-1.2-3.1-1.8
			c-1.1-0.6-2.2-1.2-3.4-1.8c-0.4,0.3-0.7,0.5-1.1,0.8c0.2,0.1,0.3,0.2,0.4,0.2c1.9,1,3.8,2,5.7,3.1
			C312.7,263.7,314.2,264.4,315.2,266z M285.5,247.5c-0.2-0.1-0.3-0.2-0.5-0.3c-1.5-0.8-3-1.6-4.4-2.4c-1.7-0.9-3.4-1.6-5.3-1.8
			c-0.7-0.1-1.4-0.1-2.2-0.2c0.1,0.1,0.2,0.2,0.3,0.2c1.1,0.2,2.1,0.5,3.1,1c1.4,0.7,2.8,1.5,4.2,2.2c1,0.6,2.1,1.1,3.1,1.7
			c0.2,0.1,0.3,0.2,0.5,0.1C284.8,248,285.1,247.8,285.5,247.5z"/>
		<path class="st66" d="M277.1,291c0.5,0.3,1.1,0.6,1.7,0.9c-2.8,1.8-5.5,3.6-8.3,5.4c-0.5-0.3-1-0.6-1.6-0.9c0.5-0.4,1-0.7,1.6-1.1
			c-0.2-0.1-0.3-0.2-0.5-0.3c-4.5-2.5-9.1-5-13.6-7.6c-5.7-3.2-11.5-6.4-17.2-9.6c-4.1-2.3-8.2-4.6-12.3-6.9c-0.3-0.2-0.5-0.2-0.7,0
			c-0.3,0.2-0.7,0.4-1.1,0.6c-0.1,0.1-0.3,0.1-0.4,0.1c-0.5-0.2-0.9-0.5-1.5-0.8c0.6-0.4,1.1-0.7,1.7-1c-0.7-0.4-1.2-0.7-1.8-1
			c-1.9-1-3.7-2.1-5.6-3.1c-1-0.6-1.9-1.2-2.6-2.1c-0.5-0.6-0.9-1.2-1.1-2c-0.4-1.4-0.1-2.7,0.9-3.8c0.3-0.3,0.6-0.6,1-0.9
			c0.8-0.5,1.6-1,2.4-1.5c0.5,0.3,1,0.6,1.6,0.9c-0.5,0.3-1,0.6-1.4,0.8c-0.3,0.2-0.6,0.3-0.8,0.6c-0.5,0.4-0.5,0.9-0.2,1.4
			c0.3,0.4,0.7,0.8,1.1,1c1,0.6,2.1,1.2,3.1,1.8c2.7,1.5,5.4,3,8,4.5c0.2,0.1,0.3,0.2,0.5,0.3c0.7-0.4,1.5-0.8,2.2-1.3
			c0.3-0.2,0.6-0.2,0.9,0c0.3,0.2,0.7,0.4,1.1,0.6c-0.9,0.5-1.7,1-2.6,1.6c0.4,0.2,0.8,0.4,1.1,0.6c13,7.2,26,14.4,38.9,21.6
			c1.1,0.6,2.3,1.2,3.4,1.9c0.3,0.2,0.5,0.2,0.8,0C276.3,291.5,276.7,291.2,277.1,291z M215.2,260.6c0,0.2,0,0.2,0,0.3
			c0,0.7,0.3,1.4,0.8,1.9c0.6,0.8,1.5,1.4,2.4,1.9c2.7,1.5,5.3,3,8,4.5c4,2.2,8,4.5,12,6.7c4.5,2.5,9,5,13.6,7.5
			c5.3,3,10.7,5.9,16,8.9c1.3,0.7,2.5,1.4,3.8,2.1c0.4-0.3,0.9-0.5,1.3-0.8c-0.2-0.1-0.2-0.2-0.3-0.2c-6-3.3-11.9-6.6-17.9-9.9
			c-4-2.2-8.1-4.5-12.1-6.7c-4.1-2.3-8.2-4.6-12.4-6.9c-4-2.2-8-4.5-12-6.7C217.1,262.5,216,261.8,215.2,260.6z"/>
		<path class="st66" d="M279.7,289.3c0.6-0.4,1-0.7,1.6-1c-14.6-8.1-29.1-16.1-43.7-24.2c-0.6,0.3-1.1,0.6-1.7,1
			c-0.5-0.3-1-0.6-1.6-0.9c0.2-0.1,0.3-0.2,0.4-0.3c2-1.2,4-2.4,5.9-3.6c0.3-0.2,0.5-0.2,0.8,0c6.7,3.7,13.4,7.4,20.1,11.1
			c8,4.4,16,8.8,24,13.2c0.7,0.4,0.5,0.4,1.2,0c0.3-0.2,0.7-0.5,1-0.6c0.3,0,0.7,0.3,1,0.5c0.2,0.1,0.3,0.2,0.6,0.3
			c-0.1,0.1-0.2,0.2-0.3,0.3c-2.4,1.6-4.9,3.2-7.3,4.8c-0.3,0.2-0.5,0.2-0.8,0C280.6,289.7,280.2,289.5,279.7,289.3z M238.9,263.3
			c0.2,0.1,0.3,0.2,0.5,0.3c12.8,7.1,25.6,14.2,38.4,21.3c1.4,0.8,2.9,1.6,4.3,2.4c0.1,0.1,0.4,0.2,0.5,0.1c0.4-0.2,0.8-0.4,1.1-0.8
			c-14.5-8-29-16-43.5-24.1C239.7,262.8,239.4,263,238.9,263.3z"/>
		<path class="st66" d="M235.7,257.2c-0.1,0.1-0.2,0.1-0.3,0.2c-1.5,0.9-3,1.8-4.5,2.6c-0.2,0.1-0.4,0.2-0.7,0
			c-3.3-1.8-6.5-3.6-9.8-5.4c-0.1-0.1-0.2-0.1-0.4-0.3c0.1-0.1,0.3-0.2,0.4-0.3c1.4-0.8,2.9-1.7,4.3-2.5c0.3-0.2,0.5-0.2,0.8,0
			c3.3,1.8,6.6,3.6,9.9,5.5C235.5,257,235.6,257.1,235.7,257.2z M231.6,257.8c-0.2-0.1-0.3-0.2-0.4-0.2c-0.7-0.4-1.3-0.7-2-1.1
			c-1.6-0.9-3.1-1.7-4.7-2.6c-0.2-0.1-0.3-0.2-0.5-0.1c-0.4,0.2-0.7,0.4-1.1,0.7c0.2,0.1,0.3,0.2,0.5,0.3c1.1,0.6,2.2,1.2,3.3,1.8
			c1.1,0.6,2.2,1.2,3.3,1.8c0.2,0.1,0.3,0.2,0.5,0.1C230.8,258.3,231.2,258,231.6,257.8z"/>
	</g>
	<g>
		<g>
			<g>
				<line class="st23" x1="338.5" y1="135.4" x2="338.5" y2="141.4"/>
				<line class="st37" x1="338.5" y1="143.3" x2="338.5" y2="185.8"/>
				<line class="st38" x1="338.5" y1="186.7" x2="338.5" y2="238.6"/>
				<line class="st23" x1="338.5" y1="239.6" x2="338.5" y2="245.6"/>
			</g>
		</g>
		<g>
			<g>
				<line class="st23" x1="62.3" y1="226.4" x2="62.3" y2="227.9"/>
				<line class="st39" x1="62.3" y1="230.4" x2="62.3" y2="279"/>
				<line class="st40" x1="62.3" y1="280.3" x2="62.3" y2="333.8"/>
				<line class="st23" x1="62.3" y1="335.1" x2="62.3" y2="336.6"/>
			</g>
		</g>
		<g>
			<g>
				<line class="st23" x1="62.3" y1="189" x2="62.3" y2="190.5"/>
				<line class="st53" x1="62.3" y1="191.6" x2="62.3" y2="211.7"/>
				<line class="st23" x1="62.3" y1="212.2" x2="62.3" y2="213.7"/>
			</g>
		</g>
		<g>
			<g>
				<line class="st23" x1="269.1" y1="182" x2="269.1" y2="188"/>
				<line class="st41" x1="269.1" y1="189" x2="269.1" y2="215.1"/>
				<line class="st23" x1="269.1" y1="217" x2="269.1" y2="223"/>
			</g>
		</g>
		<g>
			<g>
				<line class="st23" x1="269.1" y1="74.3" x2="269.1" y2="80.3"/>
				<line class="st54" x1="269.1" y1="80.5" x2="269.1" y2="88.2"/>
				<line class="st23" x1="269.1" y1="88.8" x2="269.1" y2="94.8"/>
			</g>
		</g>
		<g>
			<g>
				<line class="st23" x1="140" y1="264.7" x2="140" y2="270.7"/>
				<line class="st42" x1="140" y1="277" x2="140" y2="317"/>
				<line class="st43" x1="140" y1="317.8" x2="140" y2="370.4"/>
				<line class="st23" x1="140" y1="371.1" x2="140" y2="377.1"/>
			</g>
		</g>
	</g>
	<g class="st62">
		<g>
			<ellipse class="st63" cx="62" cy="301.3" rx="8.9" ry="4.4"/>
			<ellipse class="st63" cx="62" cy="300.4" rx="3.8" ry="1.7"/>
		</g>
		<g>
			<ellipse class="st63" cx="140" cy="337.7" rx="8.9" ry="4.4"/>
			<ellipse class="st63" cx="140" cy="336.8" rx="3.8" ry="1.7"/>
		</g>
		<g>
			<ellipse class="st63" cx="338" cy="214.8" rx="8.9" ry="4.4"/>
			<ellipse class="st63" cx="338" cy="214" rx="3.8" ry="1.7"/>
		</g>
		<g>
			<ellipse class="st63" cx="269" cy="194" rx="8.9" ry="4.4"/>
			<ellipse class="st63" cx="269" cy="193.1" rx="3.8" ry="1.7"/>
		</g>
		<g>
			<path class="st63" d="M58.5,152h7v16.1c0,0-0.5,1.4-3.5,1.4c-3,0-3.5-1.4-3.5-1.4V152z"/>
			<path class="st63" d="M58.5,153.9c0,0,3.5,3,7,3"/>
			<path class="st63" d="M58.5,151.9c0,0,3.5,3,7,3"/>
			<path class="st63" d="M58.5,155.9c0,0,3.5,3,7,3"/>
			<path class="st63" d="M58.5,157.9c0,0,3.5,3,7,3"/>
			<path class="st63" d="M58.5,159.9c0,0,3.5,3,7,3"/>
			<path class="st63" d="M58.5,161.9c0,0,3.5,3,7,3"/>
			<path class="st63" d="M58.5,163.9c0,0,3.5,3,7,3"/>
			<ellipse class="st63" cx="62" cy="150.2" rx="8" ry="3"/>
			<ellipse class="st63" cx="62" cy="147.2" rx="8" ry="3"/>
		</g>
		<g>
			<path class="st63" d="M265.7,46h7v16.1c0,0-0.5,1.4-3.5,1.4s-3.5-1.4-3.5-1.4V46z"/>
			<path class="st63" d="M265.7,47.9c0,0,3.5,3,7,3"/>
			<path class="st63" d="M265.7,45.9c0,0,3.5,3,7,3"/>
			<path class="st63" d="M265.7,49.9c0,0,3.5,3,7,3"/>
			<path class="st63" d="M265.7,51.9c0,0,3.5,3,7,3"/>
			<path class="st63" d="M265.7,53.9c0,0,3.5,3,7,3"/>
			<path class="st63" d="M265.7,55.9c0,0,3.5,3,7,3"/>
			<path class="st63" d="M265.7,57.9c0,0,3.5,3,7,3"/>
			<ellipse class="st63" cx="269.2" cy="44.2" rx="8" ry="3"/>
			<ellipse class="st63" cx="269.2" cy="41.2" rx="8" ry="3"/>
		</g>
	</g>
	<line class="st67" x1="141.4" y1="408.9" x2="141.4" y2="632.4"/>
	<line class="st67" x1="272" y1="325.4" x2="272" y2="623"/>
	<polyline class="st67" points="62,630.6 62,367.1 141.4,408.9 338.5,283 338.5,283.1 338.5,620 	"/>
</g>
</svg>
